<svg xmlns="http://www.w3.org/2000/svg" xmlns:xlink="http://www.w3.org/1999/xlink" width="500" zoomAndPan="magnify" viewBox="0 0 375 374.999991" height="500" preserveAspectRatio="xMidYMid meet" version="1.0"><defs><g/><clipPath id="6d9601d012"><path d="M 0 0.00390625 L 374.832031 0.00390625 L 374.832031 375 L 0 375 Z M 0 0.00390625 " clip-rule="nonzero"/></clipPath><clipPath id="b291880eca"><path d="M 185.457031 0.00390625 C 80.867188 0.00390625 -3.917969 83.949219 -3.917969 187.5 C -3.917969 291.050781 80.867188 374.996094 185.457031 374.996094 C 290.046875 374.996094 374.832031 291.050781 374.832031 187.5 C 374.832031 83.949219 290.046875 0.00390625 185.457031 0.00390625 " clip-rule="nonzero"/></clipPath><clipPath id="551de95453"><path d="M 21.050781 27.726562 L 343.550781 27.726562 L 343.550781 350.226562 L 21.050781 350.226562 Z M 21.050781 27.726562 " clip-rule="nonzero"/></clipPath><clipPath id="dd64cdfd95"><path d="M 182.300781 27.726562 C 93.246094 27.726562 21.050781 99.921875 21.050781 188.976562 C 21.050781 278.03125 93.246094 350.226562 182.300781 350.226562 C 271.355469 350.226562 343.550781 278.03125 343.550781 188.976562 C 343.550781 99.921875 271.355469 27.726562 182.300781 27.726562 " clip-rule="nonzero"/></clipPath><clipPath id="79a2ed637f"><path d="M 0 84 L 375 84 L 375 299 L 0 299 Z M 0 84 " clip-rule="nonzero"/></clipPath><clipPath id="644f970d3d"><path d="M -116.6875 151.164062 L 465.207031 84.164062 L 482.148438 231.3125 L -99.742188 298.3125 Z M -116.6875 151.164062 " clip-rule="nonzero"/></clipPath><clipPath id="375da0d885"><path d="M -116.6875 151.164062 L 465.207031 84.164062 L 482.148438 231.3125 L -99.742188 298.3125 Z M -116.6875 151.164062 " clip-rule="nonzero"/></clipPath></defs><g clip-path="url(#6d9601d012)"><g clip-path="url(#b291880eca)"><path stroke-linecap="butt" transform="matrix(0.749675, 0, 0, 0.75, -3.918675, 0.00229129)" fill="none" stroke-linejoin="miter" d="M 252.610328 0.00215328 C 113.09679 0.00215328 0.000941747 111.929244 0.000941747 249.996961 C 0.000941747 388.064679 113.09679 499.991769 252.610328 499.991769 C 392.123866 499.991769 505.219714 388.064679 505.219714 249.996961 C 505.219714 111.929244 392.123866 0.00215328 252.610328 0.00215328 " stroke="#7ed957" stroke-width="12" stroke-opacity="1" stroke-miterlimit="4"/></g></g><g clip-path="url(#551de95453)"><g clip-path="url(#dd64cdfd95)"><path stroke-linecap="butt" transform="matrix(0.750464, 0, 0, 0.750464, 21.050874, 27.726881)" fill="none" stroke-linejoin="miter" d="M 214.867072 -0.00042459 C 96.200834 -0.00042459 -0.000122948 96.200532 -0.000122948 214.866771 C -0.000122948 333.533009 96.200834 429.733966 214.867072 429.733966 C 333.533311 429.733966 429.734268 333.533009 429.734268 214.866771 C 429.734268 96.200532 333.533311 -0.00042459 214.867072 -0.00042459 " stroke="#7ed957" stroke-width="26" stroke-opacity="1" stroke-miterlimit="4"/></g></g><g clip-path="url(#79a2ed637f)"><g clip-path="url(#644f970d3d)"><g clip-path="url(#375da0d885)"><path fill="#ffffff" d="M -116.6875 151.164062 L 465.207031 84.164062 L 482.148438 231.3125 L -99.742188 298.3125 Z M -116.6875 151.164062 " fill-opacity="1" fill-rule="nonzero"/></g></g></g><g fill="#2b4257" fill-opacity="1"><g transform="translate(42.442472, 227.002002)"><g><path d="M 53.511719 -50.132812 L 59.914062 -50.855469 C 68.414062 -51.816406 73.667969 -53.335938 77.367188 -55.738281 C 84.519531 -60.386719 88.601562 -68.792969 87.640625 -77.289062 C 86.210938 -89.96875 75.285156 -97.601562 60.777344 -95.964844 C 41.5625 -93.792969 27.65625 -79.777344 27.863281 -62.722656 L 17.011719 -61.496094 L 15.3125 -61.304688 C 9.691406 -60.667969 5.707031 -56.113281 6.265625 -51.148438 C 6.710938 -47.226562 9.445312 -45.285156 14.035156 -45.671875 L 15.734375 -45.863281 L 32.988281 -47.8125 C 35.390625 -44.113281 37.503906 -41.835938 42.945312 -37.023438 C 43.816406 -36.328125 44.414062 -35.734375 45.140625 -35.152344 C 47.339844 -33.28125 47.949219 -32.558594 48.386719 -32.210938 C 50.308594 -30.441406 51.808594 -28.890625 53.160156 -27.453125 C 57.105469 -23 59.03125 -18.851562 59.535156 -14.40625 C 60.90625 -2.25 52.226562 8.792969 40.332031 10.136719 C 30.003906 11.304688 21.449219 4.726562 20.328125 -5.210938 C 19.605469 -11.613281 23.089844 -19.421875 28.691406 -23.761719 L 33.300781 -27.460938 C 36.710938 -30.097656 37.914062 -32.351562 37.574219 -35.355469 C 37.101562 -39.539062 33.507812 -42.046875 28.933594 -41.527344 C 24.617188 -41.042969 19.886719 -38.386719 15.117188 -33.746094 C 6.445312 -24.953125 2.355469 -14.300781 3.625 -3.058594 C 5.796875 16.15625 21.320312 28.171875 41.058594 25.941406 C 63.410156 23.414062 79.09375 5.226562 76.777344 -15.296875 C 75.84375 -23.53125 71.105469 -32.660156 64.078125 -39.808594 L 60.21875 -43.476562 Z M 44.199219 -64.566406 C 43.898438 -71.949219 51.902344 -79.601562 60.921875 -80.621094 C 66.933594 -81.300781 71.136719 -79.261719 71.578125 -75.339844 C 72.125 -70.503906 67.597656 -67.210938 59.496094 -66.296875 Z M 44.199219 -64.566406 "/></g></g></g><g fill="#2b4257" fill-opacity="1"><g transform="translate(130.143869, 217.091205)"><g><path d="M 48.550781 -29.582031 L 48.449219 -45.71875 C 48.507812 -46.386719 48.433594 -47.042969 48.359375 -47.695312 C 47.796875 -52.664062 44.449219 -55.328125 39.351562 -54.753906 C 35.5625 -54.324219 31.90625 -51.527344 29.503906 -47.019531 L 17.675781 -25.164062 L 17.367188 -43.132812 C 17.394531 -44.0625 17.40625 -45.125 17.363281 -45.515625 C 16.875 -49.832031 14.386719 -51.933594 10.59375 -51.503906 C 5.757812 -50.957031 2.511719 -46.882812 2.59375 -41.464844 L 2.65625 -39.75 L 3.984375 -12.761719 C 4.1875 -5.105469 9.007812 0.0429688 15.152344 -0.652344 C 18.550781 -1.035156 21.085938 -3.175781 23.492188 -7.683594 L 34.433594 -27.984375 L 33.65625 -16.117188 C 33.601562 -15.445312 33.558594 -14.648438 33.648438 -13.863281 C 34.355469 -7.589844 39.332031 -3.386719 45.214844 -4.050781 C 47.960938 -4.359375 51.339844 -7.257812 53.816406 -11.113281 L 74.324219 -44.011719 L 75.453125 -45.726562 C 76.917969 -48.011719 77.699219 -50.480469 77.492188 -52.3125 C 77.0625 -56.101562 73.875 -58.523438 69.957031 -58.078125 C 66.425781 -57.679688 64.496094 -56.007812 61.253906 -50.742188 Z M 48.550781 -29.582031 "/></g></g></g><g fill="#2b4257" fill-opacity="1"><g transform="translate(209.349592, 208.140471)"><g><path d="M 43.648438 -19.097656 L 50.371094 -42.761719 C 51.410156 -46.453125 51.570312 -47.398438 51.363281 -49.226562 C 50.992188 -52.496094 47.691406 -54.769531 44.03125 -54.355469 C 40.371094 -53.941406 38.167969 -52.367188 36.328125 -48.71875 C 33.285156 -52.214844 29.15625 -53.601562 23.796875 -52.996094 C 9.550781 -51.386719 -2.199219 -34.699219 -0.367188 -18.492188 C 0.855469 -7.644531 7.972656 -0.902344 16.992188 -1.921875 L 24.707031 -2.792969 C 27.972656 -3.160156 29.976562 -4.183594 32.441406 -6.976562 L 33.5 -8.152344 C 35.144531 -5.296875 37.515625 -4.238281 41.304688 -4.667969 L 49.542969 -5.597656 L 51.109375 -5.777344 C 56.207031 -6.351562 59.976562 -10.484375 59.460938 -15.058594 C 59.046875 -18.71875 56.472656 -20.414062 52.273438 -20.074219 L 50.707031 -19.894531 Z M 28.390625 -20.550781 C 27.914062 -18.910156 25 -16.59375 23.039062 -16.371094 L 20.554688 -16.089844 C 17.285156 -15.722656 14.929688 -17.839844 14.472656 -21.890625 C 13.585938 -29.734375 19.753906 -39.566406 26.160156 -40.289062 C 29.296875 -40.644531 32.148438 -38.847656 32.429688 -36.363281 C 32.515625 -35.578125 32.476562 -34.78125 32.171875 -33.953125 L 31.898438 -32.863281 Z M 28.390625 -20.550781 "/></g></g></g><g fill="#2b4257" fill-opacity="1"><g transform="translate(270.387677, 201.242791)"><g><path d="M 17.085938 -6.960938 C 21.101562 -3.046875 23.019531 -2.46875 31.515625 -3.429688 C 39.230469 -4.300781 42.640625 -5.746094 46.046875 -9.574219 C 52.019531 -16.46875 55.179688 -27.152344 54.015625 -37.480469 C 52.742188 -48.71875 46.019531 -55.507812 37.128906 -54.503906 C 32.6875 -54 29.203125 -52.019531 26.550781 -48.539062 C 24.527344 -51.222656 22.726562 -51.949219 19.847656 -51.621094 C 16.058594 -51.195312 13.402344 -48.910156 12.265625 -44.941406 L -9.902344 34.214844 L -10.492188 36.003906 C -10.855469 37.5 -11.070312 39.113281 -10.921875 40.421875 C -10.539062 43.820312 -7.367188 46.109375 -3.835938 45.710938 C 0.738281 45.191406 3.21875 42.527344 5.109375 35.828125 Z M 20.851562 -20.492188 L 23.867188 -31.292969 L 24.546875 -33.488281 C 25.5 -36.773438 25.398438 -36.496094 26.210938 -37.515625 C 27.703125 -39.535156 30.183594 -41.007812 32.535156 -41.273438 C 36.457031 -41.71875 38.800781 -39.730469 39.257812 -35.679688 C 39.714844 -31.628906 38.1875 -25.230469 35.742188 -21.117188 C 34.058594 -18.410156 32.464844 -17.304688 29.195312 -16.933594 L 28.265625 -16.960938 C 24.867188 -16.578125 23.328125 -17.332031 20.851562 -20.492188 Z M 20.851562 -20.492188 "/></g></g></g><g fill="#2b4257" fill-opacity="1"><g transform="translate(309.855347, 234.16079)"><g><path d="M 4.09375 -28.4375 L 5.875 -12.71875 C 6.175781 -10.03125 6.789062 -8.078125 7.71875 -6.859375 C 8.644531 -5.640625 9.953125 -5.125 11.640625 -5.3125 C 13.347656 -5.507812 14.515625 -6.300781 15.140625 -7.6875 C 15.765625 -9.070312 15.925781 -11.09375 15.625 -13.75 L 13.84375 -29.546875 L 19.234375 -30.15625 L 21.125 -13.5 C 21.539062 -9.78125 20.988281 -6.800781 19.46875 -4.5625 C 17.945312 -2.320312 15.515625 -1.007812 12.171875 -0.625 C 8.816406 -0.25 6.148438 -0.988281 4.171875 -2.84375 C 2.203125 -4.695312 1.007812 -7.472656 0.59375 -11.171875 L -1.296875 -27.828125 Z M 4.09375 -28.4375 "/></g></g></g><g fill="#2b4257" fill-opacity="1"><g transform="translate(337.691202, 231.015168)"><g><path d="M 11.421875 -30.015625 L 25.109375 -2.84375 L 19.34375 -2.1875 L 16.5625 -7.78125 L 6.96875 -6.6875 L 5.359375 -0.609375 L -0.328125 0.03125 L 7.25 -29.546875 Z M 8 -11.25 L 14.5625 -12 L 9.984375 -21.65625 L 9.90625 -21.640625 Z M 8 -11.25 "/></g></g></g></svg>