<svg id="svg" version="1.1" xmlns="http://www.w3.org/2000/svg" xmlns:xlink="http://www.w3.org/1999/xlink" width="400" height="400" viewBox="0, 0, 400,400"><g id="svgg"><path id="path0" d="M0.000 200.000 L 0.000 400.000 200.000 400.000 L 400.000 400.000 400.000 200.000 L 400.000 0.000 200.000 0.000 L 0.000 0.000 0.000 200.000 M101.800 164.544 C 114.604 167.964,116.406 179.896,105.877 191.542 C 95.356 203.178,95.702 217.644,106.790 229.769 C 114.682 238.398,114.877 247.277,107.301 253.055 C 100.225 258.452,90.953 256.974,82.423 249.089 C 71.349 238.852,59.122 237.268,49.029 244.762 C 42.005 249.977,34.923 248.475,30.894 240.915 C 27.879 235.259,28.414 230.668,32.790 224.645 C 39.531 215.368,39.459 204.147,32.603 195.200 C 27.526 188.576,27.831 181.581,33.445 175.870 C 37.060 172.193,43.342 171.267,46.866 173.892 C 53.212 178.619,55.564 179.624,60.954 179.913 C 68.849 180.335,75.276 177.626,82.726 170.734 C 89.066 164.868,95.364 162.824,101.800 164.544 M64.200 185.649 C 46.398 187.374,36.576 208.353,46.432 223.600 C 54.772 236.505,73.438 238.579,84.147 227.791 C 100.767 211.047,87.669 183.374,64.200 185.649 M300.051 204.241 C 304.945 208.948,309.092 212.800,309.267 212.800 C 309.441 212.800,309.632 209.065,309.692 204.500 L 309.800 196.200 313.366 196.083 C 315.949 195.999,317.023 196.109,317.260 196.483 C 317.816 197.359,317.682 229.358,317.120 229.920 C 316.131 230.909,315.221 230.182,306.209 221.200 C 301.132 216.140,296.851 212.000,296.697 212.000 C 296.542 212.000,296.367 215.915,296.308 220.700 L 296.200 229.400 292.634 229.517 C 290.051 229.601,288.977 229.491,288.740 229.117 C 288.033 228.001,288.335 196.076,289.057 195.672 C 290.274 194.991,291.128 195.657,300.051 204.241 M198.252 200.400 C 199.416 202.930,201.127 206.620,202.055 208.600 C 202.982 210.580,204.408 213.640,205.223 215.400 C 206.039 217.160,207.642 220.580,208.786 223.000 C 209.930 225.420,210.896 227.850,210.933 228.400 L 211.000 229.400 207.200 229.400 L 203.400 229.400 202.269 227.100 L 201.139 224.800 194.993 224.800 L 188.847 224.800 187.568 227.200 L 186.289 229.600 182.544 229.600 C 178.041 229.600,177.983 229.479,180.235 224.789 C 181.024 223.145,183.118 218.650,184.889 214.800 C 186.661 210.950,189.165 205.574,190.455 202.852 C 191.745 200.131,192.800 197.786,192.800 197.641 C 192.800 196.738,194.176 195.566,195.106 195.677 C 195.995 195.783,196.422 196.425,198.252 200.400 M146.316 199.700 L 146.431 203.200 143.248 203.200 C 138.352 203.200,138.800 202.034,138.800 214.764 L 138.800 225.843 140.200 227.200 C 142.222 229.160,142.158 229.283,135.869 235.518 L 130.138 241.200 124.969 241.194 C 117.620 241.185,117.653 241.372,123.900 235.106 C 126.815 232.182,129.200 229.609,129.200 229.389 C 129.200 229.169,126.770 226.564,123.800 223.600 C 120.830 220.636,118.400 218.078,118.400 217.916 C 118.400 217.754,121.145 217.571,124.500 217.510 L 130.600 217.400 130.710 210.630 C 130.838 202.751,131.098 203.215,126.538 203.206 L 123.275 203.200 123.002 201.216 C 122.758 199.443,122.980 197.133,123.474 196.294 C 123.574 196.125,128.728 196.035,134.927 196.094 L 146.200 196.200 146.316 199.700 M170.800 196.832 C 178.130 200.150,179.100 210.357,172.507 214.792 C 170.021 216.465,169.923 215.728,173.529 222.504 C 177.259 229.515,177.281 229.400,172.195 229.400 L 168.200 229.400 165.000 223.101 C 161.859 216.918,161.776 216.801,160.500 216.801 L 159.200 216.800 159.200 222.426 C 159.200 229.738,159.284 229.600,154.833 229.600 C 151.500 229.600,151.279 229.547,151.052 228.700 C 150.737 227.526,150.737 198.074,151.052 196.900 C 151.409 195.569,167.883 195.512,170.800 196.832 M232.497 196.833 C 246.521 201.557,248.135 220.335,235.150 227.700 C 232.174 229.388,230.369 229.641,222.200 229.516 L 214.600 229.400 214.495 213.201 C 214.438 204.291,214.477 196.776,214.583 196.501 C 214.947 195.552,229.497 195.822,232.497 196.833 M271.000 199.600 L 271.000 203.000 265.000 203.097 C 256.744 203.230,257.136 203.077,257.281 206.112 L 257.400 208.600 263.000 208.800 L 268.600 209.000 268.717 212.366 C 268.863 216.546,269.110 216.386,262.500 216.394 L 257.200 216.400 257.200 219.192 C 257.200 222.574,256.718 222.369,265.000 222.503 L 271.000 222.600 271.105 225.600 C 271.162 227.250,271.411 228.993,271.658 229.473 C 272.241 230.608,271.841 231.600,270.803 231.600 C 270.288 231.600,269.834 231.216,269.589 230.572 C 269.303 229.818,268.959 229.579,268.299 229.672 C 267.418 229.797,267.396 229.931,267.200 236.400 C 267.005 242.838,266.978 243.003,266.114 243.126 C 264.933 243.294,264.816 242.670,264.697 235.600 L 264.600 229.800 257.000 229.600 L 249.400 229.400 249.289 213.600 C 249.227 204.910,249.277 197.392,249.398 196.893 L 249.619 195.987 260.309 196.093 L 271.000 196.200 271.000 199.600 M282.010 197.149 C 286.263 201.401,280.680 207.355,276.119 203.432 C 274.389 201.944,274.484 198.796,276.306 197.167 C 278.121 195.546,280.400 195.539,282.010 197.149 M159.467 203.467 C 159.320 203.613,159.200 205.143,159.200 206.867 L 159.200 210.000 162.946 210.000 C 167.668 210.000,168.800 209.343,168.800 206.600 C 168.800 203.904,167.643 203.200,163.213 203.200 C 161.299 203.200,159.613 203.320,159.467 203.467 M222.602 203.651 C 222.482 203.963,222.433 208.264,222.492 213.209 L 222.600 222.200 223.944 222.329 C 233.058 223.201,238.732 214.575,233.850 207.271 C 231.852 204.281,223.403 201.562,222.602 203.651 M282.720 207.680 C 283.068 208.028,283.200 210.967,283.200 218.392 L 283.200 228.624 281.777 229.966 C 280.531 231.141,280.235 231.253,279.391 230.869 C 278.624 230.519,278.298 230.559,277.792 231.065 C 276.745 232.112,277.196 233.380,278.666 233.523 C 279.362 233.590,280.034 233.912,280.159 234.238 C 280.392 234.844,280.207 234.957,278.315 235.370 C 277.241 235.605,277.229 235.646,277.115 239.304 C 277.006 242.792,276.949 243.007,276.100 243.128 C 275.220 243.253,275.200 243.169,275.200 239.418 C 275.200 235.700,275.169 235.568,274.208 235.203 C 273.080 234.774,273.204 233.797,274.428 233.477 C 275.332 233.240,275.278 234.231,275.202 219.273 C 275.161 211.343,275.277 208.190,275.622 207.773 C 276.230 207.041,282.005 206.965,282.720 207.680 M193.456 214.150 C 192.655 215.882,192.000 217.367,192.000 217.450 C 192.000 217.532,193.260 217.600,194.800 217.600 C 198.088 217.600,198.068 217.652,196.240 213.800 L 194.911 211.000 193.456 214.150 M165.681 231.279 L 165.800 233.758 168.050 233.652 C 171.371 233.496,172.000 234.425,172.000 239.482 C 172.000 243.167,171.979 243.253,171.100 243.128 C 170.306 243.015,170.188 242.741,170.100 240.800 C 169.872 235.771,169.106 234.608,166.804 235.798 C 165.608 236.416,165.600 236.443,165.600 239.838 C 165.600 243.153,165.573 243.252,164.700 243.128 C 163.050 242.893,163.137 228.800,164.789 228.800 C 165.457 228.800,165.578 229.136,165.681 231.279 M191.500 234.675 C 192.395 235.889,192.178 243.200,191.247 243.200 C 190.298 243.200,190.012 242.162,190.005 238.691 C 189.994 233.048,186.117 234.003,185.916 239.699 C 185.808 242.777,185.739 243.009,184.900 243.128 C 184.009 243.254,184.000 243.208,184.000 238.378 L 184.000 233.500 185.100 233.687 C 185.705 233.790,186.740 233.757,187.400 233.614 C 188.908 233.287,190.846 233.789,191.500 234.675 M160.711 234.223 C 162.612 235.554,161.442 236.872,159.356 235.748 C 157.684 234.848,156.068 235.492,155.428 237.312 C 154.507 239.931,156.978 242.388,159.237 241.100 C 160.817 240.199,161.600 240.212,161.600 241.138 C 161.600 244.228,155.342 244.182,153.738 241.080 C 151.397 236.554,156.656 231.383,160.711 234.223 M180.548 234.205 C 182.087 235.745,181.966 242.991,180.400 243.016 C 179.850 243.024,178.803 243.176,178.074 243.353 C 175.196 244.051,172.954 241.726,174.020 239.151 C 174.569 237.826,176.388 236.800,178.187 236.800 C 178.786 236.800,179.200 236.572,179.200 236.243 C 179.200 235.464,178.365 235.227,176.501 235.477 C 174.640 235.727,173.835 235.002,175.015 234.139 C 176.036 233.393,179.780 233.437,180.548 234.205 M202.894 234.174 C 203.342 234.824,203.256 243.720,202.789 245.061 C 201.976 247.392,197.947 248.457,195.978 246.862 C 194.788 245.899,195.165 244.567,196.505 244.996 C 198.536 245.648,199.848 245.665,200.360 245.048 C 201.206 244.028,200.683 243.522,198.702 243.443 C 194.269 243.267,192.366 237.173,195.881 234.408 C 197.049 233.489,202.301 233.313,202.894 234.174 M212.965 234.831 C 215.477 237.817,214.734 239.200,210.618 239.200 C 207.250 239.200,206.883 239.411,208.066 240.670 C 209.004 241.669,210.367 241.860,211.652 241.172 C 212.471 240.734,213.600 241.254,213.600 242.069 C 213.600 242.778,210.669 243.688,209.075 243.474 C 205.106 242.942,203.658 237.651,206.660 234.649 C 208.279 233.030,211.528 233.123,212.965 234.831 M221.911 234.100 C 222.136 234.375,222.743 235.815,223.259 237.300 C 224.425 240.655,224.365 240.666,226.103 236.800 C 227.489 233.719,229.200 232.289,229.200 234.213 C 229.200 234.918,224.140 246.746,223.516 247.500 C 221.975 249.361,221.248 247.687,222.415 244.965 L 223.230 243.063 221.615 238.896 C 220.727 236.604,220.000 234.474,220.000 234.164 C 220.000 233.466,221.355 233.420,221.911 234.100 M238.348 234.871 C 240.654 237.230,240.318 240.880,237.627 242.694 C 232.714 246.004,227.425 239.037,231.646 234.816 C 233.445 233.016,236.560 233.042,238.348 234.871 M243.757 234.233 C 243.891 234.581,244.000 236.179,244.000 237.784 C 244.000 241.172,244.530 241.989,246.324 241.361 C 247.313 241.015,247.408 240.790,247.499 238.592 C 247.660 234.709,247.942 233.600,248.771 233.600 C 249.740 233.600,249.989 234.666,249.988 238.800 C 249.988 242.623,249.769 243.216,248.375 243.174 C 247.839 243.158,246.668 243.267,245.772 243.416 C 242.574 243.947,240.537 239.490,241.757 234.629 C 242.048 233.469,243.364 233.208,243.757 234.233 M258.330 234.486 C 258.227 235.207,257.905 235.428,256.802 235.533 C 254.614 235.740,254.400 236.127,254.400 239.877 C 254.400 243.152,254.372 243.252,253.500 243.128 C 252.642 243.006,251.876 235.943,252.534 234.227 C 252.914 233.238,258.472 233.485,258.330 234.486 M271.586 234.374 C 272.693 236.443,271.957 243.308,270.648 243.121 C 269.812 243.002,269.115 235.841,269.773 234.127 C 270.072 233.347,271.112 233.488,271.586 234.374 M288.855 234.794 C 289.831 235.769,290.026 236.263,289.925 237.494 L 289.800 239.000 286.500 239.116 C 283.045 239.238,282.682 239.482,284.000 240.800 C 284.885 241.685,286.414 241.835,287.673 241.161 C 288.947 240.479,290.107 241.735,288.982 242.577 C 284.954 245.591,279.584 241.495,281.189 236.632 C 282.244 233.436,286.481 232.419,288.855 234.794 M197.270 236.126 C 194.989 238.553,197.178 242.504,200.167 241.357 C 201.183 240.968,201.065 236.170,200.026 235.614 C 198.859 234.989,198.227 235.107,197.270 236.126 M208.344 235.966 C 207.080 236.991,207.492 237.269,210.056 237.122 L 212.200 237.000 211.300 236.100 C 210.200 235.000,209.571 234.971,208.344 235.966 M233.499 235.994 C 231.084 237.894,232.230 241.600,235.233 241.600 C 237.568 241.600,238.516 237.578,236.546 236.029 C 235.236 234.999,234.771 234.993,233.499 235.994 M284.556 235.592 C 282.646 236.364,283.091 237.200,285.413 237.200 C 287.741 237.200,288.403 236.458,286.826 235.614 C 285.928 235.133,285.696 235.131,284.556 235.592 M176.416 239.381 C 175.595 240.370,176.077 241.400,177.362 241.400 C 178.637 241.400,179.463 240.463,179.076 239.454 C 178.765 238.644,177.067 238.597,176.416 239.381 " stroke="none" fill="#fbfbfb" fill-rule="evenodd"></path><path id="path1" d="M94.800 164.817 C 90.597 165.354,86.310 167.741,82.600 171.612 C 73.001 181.627,58.145 183.450,48.537 175.793 C 43.259 171.587,38.138 171.839,33.708 176.523 C 28.386 182.151,28.166 188.483,33.070 194.961 C 40.038 204.167,40.166 216.090,33.391 224.824 C 30.352 228.742,29.800 230.153,29.800 234.000 C 29.800 245.014,40.837 251.119,48.601 244.399 C 57.990 236.273,71.812 238.358,83.913 249.727 C 95.249 260.377,111.800 255.909,111.800 242.200 C 111.800 237.140,110.827 234.945,106.558 230.381 C 94.299 217.272,94.522 202.740,107.189 189.200 C 117.793 177.866,110.166 162.855,94.800 164.817 M71.680 185.226 C 88.231 188.552,96.830 206.261,89.341 221.600 C 80.923 238.845,55.651 239.925,45.676 223.466 C 34.397 204.856,50.623 180.994,71.680 185.226 M119.600 218.276 C 119.600 218.460,121.940 220.946,124.800 223.800 C 127.660 226.654,130.000 229.156,130.000 229.361 C 130.000 229.566,127.657 232.100,124.793 234.993 C 121.928 237.885,119.708 240.375,119.859 240.526 C 120.010 240.677,122.311 240.800,124.972 240.800 L 129.810 240.800 135.593 235.007 L 141.376 229.214 139.788 227.544 C 138.915 226.626,136.493 224.148,134.406 222.037 L 130.613 218.200 125.106 218.070 C 122.078 217.998,119.600 218.091,119.600 218.276 M164.267 229.867 C 163.934 230.199,163.912 241.304,164.242 242.165 C 164.747 243.482,165.200 242.246,165.200 239.550 C 165.200 236.130,165.597 235.312,167.421 234.970 C 169.751 234.533,170.400 235.463,170.400 239.238 C 170.400 242.382,170.952 243.726,171.442 241.774 C 172.601 237.159,170.751 233.764,167.312 234.194 L 165.200 234.458 165.200 232.029 C 165.200 229.785,164.943 229.190,164.267 229.867 M265.600 236.200 C 265.600 240.333,265.749 242.800,266.000 242.800 C 266.251 242.800,266.400 240.333,266.400 236.200 C 266.400 232.067,266.251 229.600,266.000 229.600 C 265.749 229.600,265.600 232.067,265.600 236.200 M270.071 230.267 C 270.265 231.270,271.200 231.408,271.200 230.433 C 271.200 229.942,270.942 229.600,270.571 229.600 C 270.198 229.600,269.994 229.872,270.071 230.267 M276.039 230.860 C 275.798 231.553,275.600 232.469,275.600 232.897 C 275.600 233.338,275.254 233.765,274.800 233.884 C 273.780 234.151,273.774 234.674,274.785 234.995 C 275.479 235.215,275.584 235.674,275.685 238.922 C 275.832 243.620,276.559 243.615,276.717 238.916 C 276.839 235.274,277.062 234.817,278.724 234.806 C 279.236 234.803,279.537 234.622,279.400 234.400 C 279.264 234.180,278.623 234.000,277.976 234.000 C 276.872 234.000,276.800 233.902,276.800 232.414 C 276.800 230.548,277.664 229.873,279.567 230.253 C 280.360 230.412,280.800 230.339,280.800 230.050 C 280.800 228.817,276.496 229.549,276.039 230.860 M155.687 234.624 C 152.559 236.815,153.180 241.763,156.716 242.822 C 158.285 243.292,160.311 242.715,160.998 241.603 C 161.361 241.016,160.534 241.110,159.180 241.810 C 156.165 243.369,153.294 238.749,155.547 235.966 C 156.332 234.997,158.308 234.753,160.400 235.367 L 161.400 235.661 160.456 234.830 C 159.318 233.830,156.966 233.728,155.687 234.624 M175.895 234.277 C 174.573 234.622,175.643 235.203,177.155 234.961 C 178.833 234.692,180.000 235.459,180.000 236.829 C 180.000 237.483,179.710 237.600,178.089 237.600 C 175.614 237.600,174.398 238.433,174.406 240.123 C 174.417 242.369,176.064 243.602,177.988 242.805 C 178.602 242.551,179.440 242.401,179.852 242.471 C 180.911 242.654,181.209 235.667,180.186 234.643 C 179.573 234.030,177.515 233.854,175.895 234.277 M187.072 234.261 C 186.929 234.405,186.269 234.507,185.606 234.488 L 184.400 234.454 184.400 238.403 C 184.400 244.239,185.468 244.240,185.698 238.404 C 185.896 233.383,190.119 233.204,190.302 238.208 C 190.425 241.585,190.675 242.800,191.246 242.800 C 192.094 242.800,191.521 235.223,190.624 234.567 C 189.830 233.988,187.543 233.790,187.072 234.261 M196.265 234.900 C 192.714 238.161,195.805 244.471,200.145 242.821 C 201.523 242.297,202.011 243.232,201.154 244.757 C 200.368 246.158,198.722 246.707,197.411 246.006 C 196.173 245.344,195.503 245.847,196.577 246.633 C 197.872 247.580,200.143 247.348,201.345 246.145 C 202.379 245.112,202.400 244.983,202.400 239.800 L 202.400 234.509 200.544 234.254 C 197.722 233.868,197.323 233.928,196.265 234.900 M207.530 234.685 C 203.252 237.339,206.396 244.287,211.221 242.841 C 213.151 242.263,213.390 241.401,211.500 241.834 C 208.948 242.418,206.627 241.202,206.883 239.415 C 206.988 238.682,207.330 238.588,210.300 238.484 L 213.600 238.368 213.600 237.219 C 213.600 234.703,209.955 233.181,207.530 234.685 M232.748 234.603 C 231.305 235.388,230.321 237.929,230.806 239.619 C 232.301 244.834,239.227 243.776,239.187 238.338 C 239.162 234.901,235.795 232.948,232.748 234.603 M255.472 234.261 C 255.329 234.405,254.669 234.507,254.006 234.488 L 252.800 234.454 252.800 238.403 C 252.800 240.575,252.961 242.452,253.158 242.574 C 253.732 242.929,254.000 241.732,254.000 238.816 C 254.000 235.765,254.311 235.294,256.564 234.928 C 257.354 234.800,258.000 234.539,258.000 234.348 C 258.000 233.945,255.861 233.872,255.472 234.261 M282.760 235.242 C 279.841 238.368,282.522 243.791,286.608 243.025 C 288.128 242.740,289.406 241.581,288.149 241.628 C 287.737 241.644,287.040 241.798,286.600 241.970 C 284.883 242.645,282.064 240.541,282.647 239.021 C 282.836 238.528,283.577 238.400,286.243 238.400 C 289.584 238.400,289.600 238.395,289.600 237.369 C 289.600 234.290,284.989 232.857,282.760 235.242 M220.800 234.859 C 220.800 235.148,221.467 237.069,222.281 239.127 L 223.763 242.870 223.081 244.789 C 221.555 249.087,222.824 248.212,224.805 243.600 C 225.514 241.950,226.414 239.880,226.806 239.000 C 228.633 234.892,228.784 234.400,228.218 234.400 C 227.920 234.400,227.162 235.615,226.533 237.100 C 224.357 242.237,224.462 242.217,222.900 237.804 C 221.907 234.998,220.800 233.446,220.800 234.859 M242.485 238.058 C 242.635 242.830,243.347 243.579,246.941 242.743 L 249.200 242.218 249.200 238.309 C 249.200 235.970,249.039 234.400,248.800 234.400 C 248.571 234.400,248.400 235.609,248.400 237.226 C 248.400 240.549,248.051 241.365,246.380 241.947 C 244.240 242.693,243.200 241.212,243.200 237.418 C 243.200 235.600,243.035 234.400,242.785 234.400 C 242.520 234.400,242.412 235.724,242.485 238.058 M270.400 238.624 C 270.400 241.337,270.543 242.759,270.800 242.600 C 271.023 242.462,271.200 240.596,271.200 238.376 C 271.200 235.992,271.040 234.400,270.800 234.400 C 270.559 234.400,270.400 236.075,270.400 238.624 M201.062 235.651 C 201.971 236.406,201.785 241.073,200.826 241.586 C 197.582 243.322,194.574 240.083,196.217 236.622 C 197.080 234.802,199.464 234.325,201.062 235.651 M211.600 235.600 C 213.155 237.155,212.451 238.000,209.600 238.000 C 206.644 238.000,205.982 237.101,207.854 235.629 C 209.184 234.583,210.572 234.572,211.600 235.600 M237.231 235.969 C 239.997 238.736,237.217 243.264,233.669 241.772 C 230.428 240.409,231.499 234.800,235.000 234.800 C 235.640 234.800,236.526 235.264,237.231 235.969 M286.940 235.177 C 289.450 236.132,288.565 237.988,285.600 237.988 C 283.324 237.988,282.629 237.570,282.992 236.424 C 283.425 235.061,285.178 234.507,286.940 235.177 M179.926 239.690 C 180.184 241.935,176.438 242.999,175.503 240.946 C 174.833 239.476,176.081 238.327,178.179 238.481 C 179.611 238.586,179.815 238.727,179.926 239.690 " stroke="none" fill="#29ddad" fill-rule="evenodd"></path><path id="path2" d="M124.080 196.880 C 123.582 197.378,123.417 201.058,123.843 202.167 C 124.039 202.678,124.767 202.800,127.635 202.800 C 131.978 202.800,131.698 202.149,131.527 211.833 L 131.400 219.000 134.694 222.299 L 137.988 225.599 138.094 214.299 L 138.200 203.000 141.900 202.885 L 145.600 202.770 145.600 199.828 C 145.600 197.514,145.465 196.834,144.967 196.643 C 143.697 196.155,124.588 196.372,124.080 196.880 M152.100 196.641 C 151.712 196.816,151.600 200.438,151.600 212.791 C 151.600 230.889,151.206 229.200,155.425 229.200 C 158.524 229.200,158.368 229.576,158.503 221.800 L 158.600 216.200 160.258 216.079 C 162.256 215.933,162.446 216.166,165.600 222.600 C 168.973 229.481,168.682 229.200,172.427 229.200 C 176.418 229.200,176.412 229.423,172.600 222.322 C 169.116 215.834,169.122 215.860,171.138 214.832 C 178.389 211.132,177.466 199.569,169.728 197.182 C 168.156 196.696,153.008 196.232,152.100 196.641 M194.000 196.722 C 194.000 196.930,192.987 199.238,191.749 201.850 C 190.512 204.463,187.921 210.020,185.992 214.200 C 184.063 218.380,181.836 223.196,181.042 224.902 C 179.049 229.188,179.053 229.201,182.300 229.194 C 185.591 229.186,185.927 228.990,187.205 226.317 L 188.217 224.200 194.868 224.091 L 201.519 223.981 202.421 225.891 C 203.894 229.009,204.172 229.200,207.238 229.200 C 210.916 229.200,210.927 229.418,206.769 220.497 C 204.744 216.154,202.458 211.250,201.688 209.600 C 200.918 207.950,199.251 204.350,197.983 201.600 C 195.900 197.083,194.000 194.756,194.000 196.722 M215.695 196.733 C 215.300 196.984,215.213 200.513,215.295 213.026 L 215.400 229.000 221.200 229.118 C 230.585 229.308,234.475 228.204,238.393 224.241 C 248.089 214.433,242.525 198.596,228.755 196.808 C 225.157 196.341,216.392 196.290,215.695 196.733 M250.495 196.733 C 250.100 196.984,250.013 200.513,250.095 213.026 L 250.200 229.000 258.102 229.200 C 262.447 229.310,267.000 229.338,268.218 229.262 L 270.432 229.124 270.316 226.062 L 270.200 223.000 263.400 222.800 L 256.600 222.600 256.482 219.435 C 256.335 215.482,256.120 215.614,262.718 215.606 L 268.035 215.600 267.918 212.700 L 267.800 209.800 262.305 209.689 C 255.986 209.561,256.253 209.758,256.478 205.383 L 256.600 203.000 263.400 202.800 L 270.200 202.600 270.320 199.836 C 270.404 197.895,270.285 196.973,269.920 196.742 C 269.250 196.317,251.163 196.309,250.495 196.733 M289.296 212.700 L 289.400 229.000 292.400 229.000 L 295.400 229.000 295.619 220.000 C 295.740 215.050,295.875 210.955,295.919 210.900 C 296.267 210.469,297.861 211.932,306.113 220.252 C 311.748 225.933,315.710 229.630,316.044 229.519 C 316.504 229.366,316.618 226.573,316.705 213.367 C 316.825 195.290,317.031 196.400,313.556 196.400 C 310.210 196.400,310.400 195.884,310.400 204.994 C 310.400 211.707,310.297 213.188,309.801 213.599 C 309.273 214.037,296.437 202.351,291.838 197.246 C 291.419 196.781,290.652 196.400,290.134 196.400 L 289.191 196.400 289.296 212.700 M276.581 197.858 C 273.395 201.296,278.318 206.144,281.631 202.831 C 282.429 202.033,282.800 201.261,282.800 200.400 C 282.800 197.319,278.652 195.624,276.581 197.858 M167.427 202.986 C 170.227 204.156,170.600 208.041,168.101 210.007 C 167.176 210.734,166.587 210.813,162.830 210.713 L 158.600 210.600 158.483 207.032 C 158.419 205.069,158.459 203.224,158.571 202.932 C 158.864 202.168,165.567 202.208,167.427 202.986 M231.827 204.213 C 235.431 206.444,237.227 211.705,235.824 215.927 C 234.125 221.043,231.299 222.896,225.473 222.715 L 221.800 222.600 221.692 213.208 C 221.633 208.043,221.679 203.571,221.794 203.271 C 222.237 202.118,229.551 202.805,231.827 204.213 M276.283 208.251 C 275.716 208.818,275.956 228.187,276.540 228.986 C 277.176 229.856,281.464 229.651,282.060 228.722 C 282.245 228.435,282.351 223.700,282.298 218.200 L 282.200 208.200 279.383 208.084 C 277.833 208.020,276.438 208.095,276.283 208.251 M197.149 214.029 C 199.173 218.448,199.199 218.400,194.776 218.400 C 190.518 218.400,190.583 218.550,192.774 213.807 C 194.758 209.512,195.087 209.529,197.149 214.029 " stroke="none" fill="#666666" fill-rule="evenodd"></path><path id="path3" d="M194.256 196.127 C 193.915 196.387,192.886 198.220,191.970 200.200 C 191.055 202.180,189.595 205.307,188.726 207.149 C 187.857 208.992,186.618 211.647,185.973 213.049 C 185.328 214.452,184.272 216.748,183.627 218.151 C 182.982 219.553,181.722 222.250,180.827 224.142 C 178.382 229.314,178.463 229.600,182.371 229.600 C 185.960 229.600,186.331 229.385,187.616 226.566 L 188.420 224.800 194.961 224.800 L 201.503 224.800 202.021 226.100 C 203.330 229.382,203.736 229.643,207.334 229.516 C 211.319 229.374,211.404 229.195,209.444 225.066 C 208.670 223.434,207.488 220.906,206.818 219.449 C 206.148 217.992,205.052 215.608,204.382 214.151 C 203.712 212.694,202.521 210.129,201.735 208.451 C 200.949 206.773,199.633 203.960,198.812 202.200 C 197.990 200.440,197.007 198.339,196.628 197.531 C 195.842 195.856,195.151 195.447,194.256 196.127 M289.296 195.933 C 288.900 196.184,288.814 199.833,288.896 212.826 L 289.000 229.400 292.400 229.400 L 295.800 229.400 295.908 220.500 C 295.989 213.780,296.136 211.599,296.508 211.598 C 296.778 211.596,300.983 215.627,305.851 220.555 C 318.578 233.439,317.604 234.045,317.587 213.251 C 317.572 194.721,317.873 196.000,313.536 196.000 C 309.423 196.000,309.600 195.590,309.600 205.113 C 309.600 210.195,309.454 213.216,309.213 213.133 C 309.000 213.060,305.535 209.833,301.513 205.963 C 290.899 195.749,290.326 195.278,289.296 195.933 M123.631 196.563 C 123.341 196.912,123.208 198.242,123.282 200.063 L 123.400 203.000 127.200 203.200 L 131.000 203.400 131.000 210.862 C 131.000 214.967,131.135 218.241,131.300 218.139 C 131.656 217.918,131.709 204.349,131.357 203.433 C 131.161 202.922,130.436 202.800,127.600 202.800 C 123.598 202.800,123.600 202.801,123.600 199.447 C 123.600 196.309,123.276 196.400,134.447 196.400 C 146.472 196.400,145.600 196.132,145.600 199.828 L 145.600 202.770 141.900 202.885 L 138.200 203.000 138.187 214.400 L 138.175 225.800 138.387 214.600 L 138.600 203.400 142.187 203.283 C 144.437 203.210,145.888 202.986,146.081 202.683 C 146.577 201.902,146.451 197.011,145.920 196.480 C 145.165 195.725,124.262 195.803,123.631 196.563 M151.644 196.547 C 151.319 196.939,151.220 201.655,151.295 213.247 L 151.400 229.400 154.766 229.517 C 158.970 229.664,158.786 229.974,158.794 222.727 C 158.800 217.295,158.858 216.836,159.566 216.611 C 161.473 216.005,162.116 216.687,164.773 222.129 C 168.641 230.051,168.182 229.600,172.384 229.600 C 176.822 229.600,176.966 229.347,174.804 225.358 C 173.922 223.731,172.449 221.016,171.532 219.323 C 169.980 216.461,169.915 216.217,170.590 215.823 C 179.579 210.579,178.672 199.559,169.000 196.516 C 166.651 195.777,152.262 195.802,151.644 196.547 M214.880 196.480 C 214.191 197.169,214.191 228.431,214.880 229.120 C 215.575 229.815,228.355 229.762,231.017 229.053 C 248.006 224.529,247.894 200.641,230.864 196.570 C 227.895 195.860,215.569 195.791,214.880 196.480 M249.783 196.501 C 249.677 196.776,249.638 204.291,249.695 213.201 L 249.800 229.400 257.800 229.417 L 265.800 229.435 258.000 229.217 L 250.200 229.000 250.095 213.026 C 250.013 200.513,250.100 196.984,250.495 196.733 C 251.163 196.309,269.250 196.317,269.920 196.742 C 270.285 196.973,270.404 197.895,270.320 199.836 L 270.200 202.600 263.400 202.800 L 256.600 203.000 256.478 205.383 C 256.253 209.758,255.986 209.561,262.305 209.689 L 267.800 209.800 267.918 212.700 L 268.035 215.600 262.718 215.606 C 256.120 215.614,256.335 215.482,256.482 219.435 L 256.600 222.600 263.400 222.800 L 270.200 223.000 270.316 226.079 L 270.433 229.157 268.316 229.305 L 266.200 229.452 268.457 229.526 C 271.109 229.613,271.200 229.490,271.200 225.816 C 271.200 222.412,271.260 222.439,263.571 222.310 L 257.000 222.200 257.000 219.200 L 257.000 216.200 262.800 216.000 L 268.600 215.800 268.719 212.809 C 268.879 208.813,268.857 208.800,262.105 208.800 L 256.763 208.800 256.882 206.100 L 257.000 203.400 263.571 203.290 C 271.215 203.162,271.200 203.168,271.200 199.925 C 271.200 195.753,271.894 196.000,260.173 196.000 C 252.378 196.000,249.930 196.118,249.783 196.501 M277.800 196.467 C 273.355 198.925,274.692 204.832,279.568 204.282 C 283.772 203.808,284.609 198.570,280.796 196.598 C 279.434 195.894,278.880 195.869,277.800 196.467 M169.728 197.182 C 177.466 199.569,178.389 211.132,171.138 214.832 C 169.122 215.860,169.116 215.834,172.600 222.322 C 176.412 229.423,176.418 229.200,172.427 229.200 C 168.682 229.200,168.973 229.481,165.600 222.600 C 162.446 216.166,162.256 215.933,160.258 216.079 L 158.600 216.200 158.503 221.800 C 158.368 229.576,158.524 229.200,155.425 229.200 C 151.206 229.200,151.600 230.889,151.600 212.791 C 151.600 200.438,151.712 196.816,152.100 196.641 C 153.008 196.232,168.156 196.696,169.728 197.182 M197.983 201.600 C 199.251 204.350,200.918 207.950,201.688 209.600 C 211.812 231.303,211.217 229.200,207.238 229.200 C 204.172 229.200,203.894 229.009,202.421 225.891 L 201.519 223.981 194.868 224.091 L 188.217 224.200 187.205 226.317 C 185.927 228.990,185.591 229.186,182.300 229.194 C 179.053 229.201,179.049 229.188,181.042 224.902 C 181.836 223.196,184.063 218.380,185.992 214.200 C 187.921 210.020,190.512 204.463,191.749 201.850 C 192.987 199.238,194.000 196.930,194.000 196.722 C 194.000 194.756,195.900 197.083,197.983 201.600 M228.755 196.808 C 242.525 198.596,248.089 214.433,238.393 224.241 C 234.475 228.204,230.585 229.308,221.200 229.118 L 215.400 229.000 215.295 213.026 C 215.213 200.513,215.300 196.984,215.695 196.733 C 216.392 196.290,225.157 196.341,228.755 196.808 M291.838 197.246 C 296.437 202.351,309.273 214.037,309.801 213.599 C 310.297 213.188,310.400 211.707,310.400 204.994 C 310.400 195.884,310.210 196.400,313.556 196.400 C 317.031 196.400,316.825 195.290,316.705 213.367 C 316.618 226.573,316.504 229.366,316.044 229.519 C 315.710 229.630,311.748 225.933,306.113 220.252 C 297.861 211.932,296.267 210.469,295.919 210.900 C 295.875 210.955,295.740 215.050,295.619 220.000 L 295.400 229.000 292.400 229.000 L 289.400 229.000 289.296 212.700 L 289.191 196.400 290.134 196.400 C 290.652 196.400,291.419 196.781,291.838 197.246 M281.631 197.969 C 284.911 201.249,280.387 205.957,276.831 202.964 C 275.858 202.146,275.600 201.614,275.600 200.423 C 275.600 197.046,279.230 195.569,281.631 197.969 M158.571 202.932 C 158.459 203.224,158.419 205.069,158.483 207.032 L 158.600 210.600 162.830 210.713 C 166.587 210.813,167.176 210.734,168.101 210.007 C 170.600 208.041,170.227 204.156,167.427 202.986 C 165.567 202.208,158.864 202.168,158.571 202.932 M221.794 203.271 C 221.679 203.571,221.633 208.043,221.692 213.208 L 221.800 222.600 225.473 222.715 C 231.299 222.896,234.125 221.043,235.824 215.927 C 237.227 211.705,235.431 206.444,231.827 204.213 C 229.551 202.805,222.237 202.118,221.794 203.271 M168.371 204.254 C 171.048 207.657,168.508 210.478,162.916 210.315 L 159.000 210.200 158.884 206.700 L 158.769 203.200 163.155 203.200 C 167.418 203.200,167.565 203.230,168.371 204.254 M230.647 204.064 C 240.200 208.554,236.108 222.718,225.373 222.318 L 222.200 222.200 222.092 213.209 C 222.033 208.264,222.072 203.989,222.180 203.709 C 222.529 202.797,228.483 203.047,230.647 204.064 M276.300 207.632 C 275.118 208.320,275.270 229.600,276.457 229.600 C 276.668 229.600,276.647 229.261,276.407 228.813 C 276.136 228.307,276.024 224.494,276.093 218.113 L 276.200 208.200 279.200 208.200 L 282.200 208.200 282.313 217.800 C 282.438 228.502,282.378 229.071,281.099 229.318 C 280.299 229.472,280.316 229.497,281.257 229.546 C 282.773 229.624,282.800 229.424,282.800 218.181 C 282.800 208.553,282.760 208.007,282.026 207.614 C 281.039 207.086,277.218 207.098,276.300 207.632 M192.774 213.807 C 190.583 218.550,190.518 218.400,194.776 218.400 C 199.199 218.400,199.173 218.448,197.149 214.029 C 195.087 209.529,194.758 209.512,192.774 213.807 M195.712 212.100 C 198.621 218.368,198.666 218.000,195.000 218.000 C 191.581 218.000,191.420 217.784,192.741 214.975 C 193.149 214.109,193.733 212.815,194.039 212.100 C 194.345 211.385,194.711 210.800,194.852 210.800 C 194.993 210.800,195.380 211.385,195.712 212.100 " stroke="none" fill="#979797" fill-rule="evenodd"></path><path id="path4" d="M92.702 164.618 C 89.323 165.542,86.404 167.331,82.726 170.734 C 75.276 177.626,68.849 180.335,60.954 179.913 C 55.564 179.624,53.212 178.619,46.866 173.892 C 43.342 171.267,37.060 172.193,33.445 175.870 C 27.831 181.581,27.526 188.576,32.603 195.200 C 39.459 204.147,39.531 215.368,32.790 224.645 C 28.414 230.668,27.879 235.259,30.894 240.915 C 34.923 248.475,42.005 249.977,49.029 244.762 C 59.122 237.268,71.349 238.852,82.423 249.089 C 90.953 256.974,100.225 258.452,107.301 253.055 C 114.877 247.277,114.682 238.398,106.790 229.769 C 95.702 217.644,95.356 203.178,105.877 191.542 C 109.825 187.175,110.964 185.473,112.016 182.367 C 115.764 171.299,104.874 161.291,92.702 164.618 M102.400 165.290 C 112.967 168.445,115.372 180.453,107.189 189.200 C 94.522 202.740,94.299 217.272,106.558 230.381 C 110.827 234.945,111.800 237.140,111.800 242.200 C 111.800 255.909,95.249 260.377,83.913 249.727 C 71.812 238.358,57.990 236.273,48.601 244.399 C 40.837 251.119,29.800 245.014,29.800 234.000 C 29.800 230.153,30.352 228.742,33.391 224.824 C 40.166 216.090,40.038 204.167,33.070 194.961 C 28.166 188.483,28.386 182.151,33.708 176.523 C 38.138 171.839,43.259 171.587,48.537 175.793 C 58.145 183.450,73.001 181.627,82.600 171.612 C 88.346 165.618,95.666 163.280,102.400 165.290 M60.942 185.608 C 44.483 189.862,36.823 208.859,45.676 223.466 C 55.651 239.925,80.923 238.845,89.341 221.600 C 98.902 202.017,81.716 180.237,60.942 185.608 M73.400 186.260 C 91.621 190.976,97.632 214.205,84.147 227.791 C 71.537 240.494,49.197 235.009,43.786 217.881 C 37.823 199.004,54.370 181.335,73.400 186.260 M289.100 195.632 C 288.449 196.011,288.407 197.188,288.495 212.520 L 288.591 229.000 288.700 212.641 C 288.800 197.647,288.867 196.237,289.505 195.754 C 290.330 195.127,290.090 195.055,289.100 195.632 M193.355 196.612 C 192.990 197.169,192.806 197.739,192.946 197.879 C 193.086 198.019,193.200 197.923,193.200 197.667 C 193.200 197.410,193.560 196.840,194.000 196.400 C 194.440 195.960,194.624 195.600,194.409 195.600 C 194.194 195.600,193.720 196.056,193.355 196.612 M290.438 195.700 C 290.532 195.755,291.327 196.430,292.204 197.200 L 293.800 198.600 292.422 197.100 C 291.663 196.275,290.868 195.600,290.655 195.600 C 290.441 195.600,290.344 195.645,290.438 195.700 M168.600 196.400 C 169.040 196.589,169.670 196.744,170.000 196.744 C 170.378 196.744,170.304 196.617,169.800 196.400 C 169.360 196.211,168.730 196.056,168.400 196.056 C 168.022 196.056,168.096 196.183,168.600 196.400 M276.487 197.100 C 275.868 197.705,275.730 197.910,276.181 197.555 C 276.631 197.200,277.360 196.710,277.800 196.467 C 278.240 196.223,278.378 196.019,278.106 196.012 C 277.835 196.005,277.106 196.495,276.487 197.100 M280.600 196.468 C 281.040 196.712,281.679 197.112,282.020 197.356 C 282.360 197.600,282.215 197.395,281.697 196.900 C 281.179 196.405,280.540 196.005,280.278 196.012 C 280.015 196.019,280.160 196.224,280.600 196.468 M171.368 197.294 C 171.791 197.572,172.871 198.423,173.768 199.185 L 175.400 200.571 174.200 199.250 C 173.540 198.523,172.460 197.672,171.800 197.359 C 171.140 197.045,170.946 197.016,171.368 197.294 M249.288 212.876 C 249.240 221.828,249.335 229.236,249.500 229.339 C 249.773 229.508,249.767 217.159,249.487 202.400 C 249.426 199.210,249.337 203.924,249.288 212.876 M150.982 212.800 C 150.982 221.490,151.035 225.045,151.100 220.700 C 151.164 216.355,151.164 209.245,151.100 204.900 C 151.035 200.555,150.982 204.110,150.982 212.800 M122.909 199.600 C 122.909 200.590,122.987 200.995,123.082 200.500 C 123.178 200.005,123.178 199.195,123.082 198.700 C 122.987 198.205,122.909 198.610,122.909 199.600 M297.800 202.400 C 299.992 204.600,301.875 206.400,301.985 206.400 C 302.095 206.400,300.392 204.600,298.200 202.400 C 296.008 200.200,294.125 198.400,294.015 198.400 C 293.905 198.400,295.608 200.200,297.800 202.400 M238.783 200.900 C 240.441 202.666,240.800 202.984,240.800 202.683 C 240.800 202.619,239.945 201.764,238.900 200.783 L 237.000 199.000 238.783 200.900 M274.893 200.400 C 274.893 201.170,274.975 201.485,275.076 201.100 C 275.176 200.715,275.176 200.085,275.076 199.700 C 274.975 199.315,274.893 199.630,274.893 200.400 M283.293 200.400 C 283.293 201.170,283.375 201.485,283.476 201.100 C 283.576 200.715,283.576 200.085,283.476 199.700 C 283.375 199.315,283.293 199.630,283.293 200.400 M130.310 203.499 C 130.697 203.773,130.793 205.496,130.710 210.630 L 130.600 217.400 124.500 217.510 C 121.145 217.571,118.400 217.754,118.400 217.916 C 118.400 218.078,120.830 220.636,123.800 223.600 C 126.770 226.564,129.200 229.169,129.200 229.389 C 129.200 229.609,126.815 232.182,123.900 235.106 C 117.653 241.372,117.620 241.185,124.969 241.194 L 130.138 241.200 135.869 235.518 C 142.158 229.283,142.222 229.160,140.200 227.200 L 138.800 225.843 138.800 214.755 C 138.800 207.581,138.945 203.595,139.210 203.463 C 139.436 203.351,139.391 203.306,139.110 203.363 C 138.714 203.443,138.576 206.005,138.494 214.810 L 138.387 226.153 139.882 227.684 L 141.376 229.214 135.593 235.007 L 129.810 240.800 124.972 240.800 C 122.311 240.800,120.010 240.677,119.859 240.526 C 119.708 240.375,121.928 237.885,124.793 234.993 C 127.657 232.100,130.000 229.566,130.000 229.361 C 130.000 229.156,127.660 226.654,124.800 223.800 C 121.940 220.946,119.600 218.460,119.600 218.276 C 119.600 218.091,122.128 217.998,125.218 218.070 C 131.920 218.225,131.272 219.109,131.114 210.033 C 131.020 204.601,130.896 203.438,130.400 203.302 C 129.946 203.179,129.924 203.226,130.310 203.499 M158.884 206.700 L 159.000 210.200 162.861 210.314 C 166.553 210.423,166.773 210.382,167.861 209.375 L 169.000 208.322 167.846 209.161 C 166.868 209.872,166.117 210.000,162.917 210.000 L 159.141 210.000 159.271 206.599 C 159.342 204.729,159.258 203.199,159.084 203.199 C 158.911 203.200,158.821 204.775,158.884 206.700 M222.267 203.467 C 221.897 203.836,221.929 221.909,222.300 222.138 C 222.465 222.240,222.600 218.021,222.600 212.762 C 222.600 207.503,222.585 203.200,222.567 203.200 C 222.548 203.200,222.413 203.320,222.267 203.467 M226.833 203.343 C 226.925 203.422,227.720 203.597,228.600 203.732 C 229.690 203.899,230.009 203.855,229.600 203.595 C 229.053 203.246,226.445 203.009,226.833 203.343 M257.067 203.467 C 256.698 203.835,256.729 208.800,257.100 208.801 C 257.265 208.801,257.338 207.697,257.262 206.348 C 257.164 204.605,257.279 203.796,257.662 203.553 C 257.958 203.366,258.005 203.209,257.767 203.206 C 257.528 203.203,257.213 203.320,257.067 203.467 M279.200 204.400 C 277.816 204.691,277.814 204.695,279.000 204.741 C 279.660 204.767,280.470 204.613,280.800 204.400 C 281.466 203.970,281.245 203.970,279.200 204.400 M168.901 206.600 C 168.905 207.480,168.987 207.793,169.083 207.295 C 169.179 206.798,169.175 206.078,169.075 205.695 C 168.975 205.313,168.896 205.720,168.901 206.600 M275.622 207.773 C 275.277 208.190,275.161 211.343,275.202 219.273 C 275.278 234.231,275.332 233.240,274.428 233.477 C 273.204 233.797,273.080 234.774,274.208 235.203 C 275.169 235.568,275.200 235.700,275.200 239.418 C 275.200 243.169,275.220 243.253,276.100 243.128 C 276.949 243.007,277.006 242.792,277.115 239.304 C 277.229 235.646,277.241 235.605,278.315 235.370 C 280.207 234.957,280.392 234.844,280.159 234.238 C 280.034 233.912,279.362 233.590,278.666 233.523 C 277.196 233.380,276.745 232.112,277.792 231.065 C 278.305 230.552,278.619 230.517,279.421 230.882 C 280.268 231.268,280.534 231.207,281.223 230.468 C 281.873 229.770,281.910 229.600,281.416 229.600 C 281.077 229.600,280.800 229.803,280.800 230.050 C 280.800 230.339,280.360 230.412,279.567 230.253 C 277.664 229.873,276.800 230.548,276.800 232.414 C 276.800 233.902,276.872 234.000,277.976 234.000 C 278.623 234.000,279.264 234.180,279.400 234.400 C 279.537 234.622,279.236 234.803,278.724 234.806 C 277.054 234.817,276.839 235.269,276.717 239.013 C 276.562 243.757,275.834 243.693,275.685 238.922 C 275.584 235.674,275.479 235.215,274.785 234.995 C 273.830 234.692,273.759 234.106,274.656 233.929 C 275.490 233.765,276.486 230.107,275.963 229.130 C 275.208 227.720,275.516 208.089,276.300 207.632 C 276.685 207.408,276.797 207.219,276.549 207.212 C 276.301 207.205,275.884 207.458,275.622 207.773 M282.137 207.704 C 282.765 208.163,282.816 209.149,282.713 218.667 C 282.651 224.418,282.735 229.041,282.900 228.939 C 283.065 228.836,283.200 224.119,283.200 218.456 C 283.200 208.250,283.073 207.200,281.844 207.200 C 281.625 207.200,281.757 207.427,282.137 207.704 M243.268 208.400 C 243.288 209.439,243.918 211.146,243.932 210.200 C 243.938 209.760,243.789 209.040,243.600 208.600 C 243.389 208.110,243.261 208.032,243.268 208.400 M307.286 211.401 C 308.323 212.479,309.233 213.280,309.307 213.181 C 309.381 213.081,308.533 212.199,307.421 211.220 L 305.400 209.440 307.286 211.401 M174.226 213.100 C 173.362 214.205,173.293 214.390,173.963 213.804 C 174.765 213.104,175.823 211.600,175.514 211.600 C 175.451 211.600,174.872 212.275,174.226 213.100 M235.693 212.800 C 235.693 213.570,235.775 213.885,235.876 213.500 C 235.976 213.115,235.976 212.485,235.876 212.100 C 235.775 211.715,235.693 212.030,235.693 212.800 M295.915 220.581 C 295.852 225.520,295.928 229.433,296.084 229.276 C 296.459 228.901,296.684 211.599,296.315 211.600 C 296.158 211.600,295.978 215.641,295.915 220.581 M301.193 216.100 C 305.087 220.094,305.600 220.582,305.600 220.293 C 305.600 220.234,303.665 218.299,301.300 215.993 L 297.000 211.800 301.193 216.100 M243.450 216.050 C 243.309 216.753,243.269 217.402,243.359 217.492 C 243.450 217.583,243.648 217.091,243.800 216.400 C 243.952 215.709,243.993 215.059,243.891 214.958 C 243.789 214.856,243.591 215.347,243.450 216.050 M256.967 216.542 C 256.554 217.617,256.985 222.134,257.510 222.238 C 257.791 222.294,257.836 222.249,257.610 222.137 C 257.385 222.025,257.200 220.693,257.200 219.178 L 257.200 216.423 262.700 216.299 L 268.200 216.175 262.687 216.088 C 258.356 216.019,257.130 216.116,256.967 216.542 M158.960 222.600 C 158.961 225.900,159.022 227.197,159.098 225.482 C 159.173 223.767,159.172 221.067,159.097 219.482 C 159.021 217.897,158.959 219.300,158.960 222.600 M197.600 217.182 C 197.600 217.393,196.295 217.627,194.700 217.703 L 191.800 217.841 194.900 217.921 C 197.424 217.985,198.000 217.889,198.000 217.400 C 198.000 217.070,197.910 216.800,197.800 216.800 C 197.690 216.800,197.600 216.972,197.600 217.182 M171.000 218.400 C 171.341 219.060,171.711 219.600,171.821 219.600 C 171.931 219.600,171.741 219.060,171.400 218.400 C 171.059 217.740,170.689 217.200,170.579 217.200 C 170.469 217.200,170.659 217.740,171.000 218.400 M228.000 222.000 C 226.616 222.291,226.614 222.295,227.800 222.341 C 228.460 222.367,229.270 222.213,229.600 222.000 C 230.266 221.570,230.045 221.570,228.000 222.000 M238.800 224.600 C 237.828 225.590,237.123 226.400,237.233 226.400 C 237.343 226.400,238.228 225.590,239.200 224.600 C 240.172 223.610,240.877 222.800,240.767 222.800 C 240.657 222.800,239.772 223.610,238.800 224.600 M163.793 229.700 C 163.088 232.558,163.793 242.999,164.700 243.128 C 165.573 243.252,165.600 243.153,165.600 239.838 C 165.600 236.443,165.608 236.416,166.804 235.798 C 169.106 234.608,169.872 235.771,170.100 240.800 C 170.188 242.741,170.306 243.015,171.100 243.128 C 171.979 243.253,172.000 243.167,172.000 239.482 C 172.000 234.425,171.371 233.496,168.050 233.652 L 165.800 233.758 165.681 231.279 C 165.554 228.634,164.313 227.595,163.793 229.700 M271.050 229.951 C 271.332 231.360,270.475 231.772,270.116 230.400 C 270.001 229.960,269.753 229.600,269.566 229.600 C 269.379 229.600,269.376 230.005,269.559 230.500 C 270.004 231.703,271.750 231.751,271.919 230.565 C 271.985 230.106,271.760 229.499,271.420 229.216 C 270.877 228.766,270.831 228.857,271.050 229.951 M316.980 229.632 C 316.833 229.870,316.237 229.965,315.656 229.843 C 314.625 229.627,314.622 229.632,315.517 230.079 C 316.262 230.451,316.559 230.412,317.103 229.869 C 317.471 229.501,317.653 229.200,317.509 229.200 C 317.365 229.200,317.127 229.395,316.980 229.632 M165.200 232.029 L 165.200 234.458 167.312 234.194 C 170.751 233.764,172.601 237.159,171.442 241.774 C 170.952 243.726,170.400 242.382,170.400 239.238 C 170.400 235.463,169.751 234.533,167.421 234.970 C 165.597 235.312,165.200 236.130,165.200 239.550 C 165.200 242.246,164.747 243.482,164.242 242.165 C 163.912 241.304,163.934 230.199,164.267 229.867 C 164.943 229.190,165.200 229.785,165.200 232.029 M264.829 236.299 C 265.093 244.024,264.956 243.290,266.100 243.128 C 267.176 242.975,267.967 229.598,266.900 229.599 C 266.520 229.600,266.400 231.187,266.400 236.200 C 266.400 240.333,266.251 242.800,266.000 242.800 C 265.749 242.800,265.600 240.333,265.600 236.200 C 265.600 231.187,265.480 229.600,265.100 229.599 C 264.711 229.599,264.651 231.083,264.829 236.299 M187.400 233.614 C 186.740 233.757,185.705 233.790,185.100 233.687 L 184.000 233.500 184.000 238.378 C 184.000 243.208,184.009 243.254,184.900 243.128 C 185.739 243.009,185.808 242.777,185.916 239.699 C 186.117 234.003,189.994 233.048,190.005 238.691 C 190.012 242.162,190.298 243.200,191.247 243.200 C 192.178 243.200,192.395 235.889,191.500 234.675 C 190.846 233.789,188.908 233.287,187.400 233.614 M154.755 234.724 C 152.228 236.981,152.827 241.562,155.835 242.990 C 158.274 244.147,161.600 243.078,161.600 241.138 C 161.600 240.212,160.817 240.199,159.237 241.100 C 156.978 242.388,154.507 239.931,155.428 237.312 C 156.068 235.492,157.684 234.848,159.356 235.748 C 161.442 236.872,162.612 235.554,160.711 234.223 C 159.193 233.160,156.226 233.409,154.755 234.724 M175.015 234.139 C 173.835 235.002,174.640 235.727,176.501 235.477 C 178.365 235.227,179.200 235.464,179.200 236.243 C 179.200 236.572,178.786 236.800,178.187 236.800 C 176.388 236.800,174.569 237.826,174.020 239.151 C 172.954 241.726,175.196 244.051,178.074 243.353 C 178.803 243.176,179.850 243.024,180.400 243.016 C 181.966 242.991,182.087 235.745,180.548 234.205 C 179.780 233.437,176.036 233.393,175.015 234.139 M195.881 234.408 C 192.366 237.173,194.269 243.267,198.702 243.443 C 200.683 243.522,201.206 244.028,200.360 245.048 C 199.848 245.665,198.536 245.648,196.505 244.996 C 195.165 244.567,194.788 245.899,195.978 246.862 C 197.947 248.457,201.976 247.392,202.789 245.061 C 203.256 243.720,203.342 234.824,202.894 234.174 C 202.301 233.313,197.049 233.489,195.881 234.408 M206.660 234.649 C 203.658 237.651,205.106 242.942,209.075 243.474 C 210.669 243.688,213.600 242.778,213.600 242.069 C 213.600 241.254,212.471 240.734,211.652 241.172 C 210.367 241.860,209.004 241.669,208.066 240.670 C 206.883 239.411,207.250 239.200,210.618 239.200 C 214.734 239.200,215.477 237.817,212.965 234.831 C 211.528 233.123,208.279 233.030,206.660 234.649 M220.000 234.164 C 220.000 234.474,220.727 236.604,221.615 238.896 L 223.230 243.063 222.415 244.965 C 221.248 247.687,221.975 249.361,223.516 247.500 C 224.140 246.746,229.200 234.918,229.200 234.213 C 229.200 232.289,227.489 233.719,226.103 236.800 C 224.365 240.666,224.425 240.655,223.259 237.300 C 222.077 233.899,220.000 231.901,220.000 234.164 M231.646 234.816 C 229.340 237.121,229.688 240.884,232.373 242.694 C 237.287 246.005,242.526 239.145,238.348 234.871 C 236.560 233.042,233.445 233.016,231.646 234.816 M241.757 234.629 C 240.537 239.490,242.574 243.947,245.772 243.416 C 246.668 243.267,247.839 243.158,248.375 243.174 C 249.769 243.216,249.988 242.623,249.988 238.800 C 249.989 234.666,249.740 233.600,248.771 233.600 C 247.942 233.600,247.660 234.709,247.499 238.592 C 247.408 240.790,247.313 241.015,246.324 241.361 C 244.530 241.989,244.000 241.172,244.000 237.784 C 244.000 233.718,242.511 231.625,241.757 234.629 M252.534 234.227 C 251.876 235.943,252.642 243.006,253.500 243.128 C 254.372 243.252,254.400 243.152,254.400 239.877 C 254.400 236.127,254.614 235.740,256.802 235.533 C 257.905 235.428,258.227 235.207,258.330 234.486 C 258.472 233.485,252.914 233.238,252.534 234.227 M269.773 234.127 C 269.115 235.841,269.812 243.002,270.648 243.121 C 271.733 243.276,271.987 242.361,271.995 238.274 C 272.001 234.423,270.636 231.876,269.773 234.127 M282.683 234.406 C 277.627 238.383,283.831 246.431,288.982 242.577 C 290.107 241.735,288.947 240.479,287.673 241.161 C 286.414 241.835,284.885 241.685,284.000 240.800 C 282.682 239.482,283.045 239.238,286.500 239.116 L 289.800 239.000 289.925 237.494 C 290.195 234.220,285.477 232.208,282.683 234.406 M160.456 234.830 L 161.400 235.661 160.400 235.367 C 158.308 234.753,156.332 234.997,155.547 235.966 C 153.294 238.749,156.165 243.369,159.180 241.810 C 160.534 241.110,161.361 241.016,160.998 241.603 C 159.721 243.670,155.772 243.357,154.382 241.078 C 151.831 236.894,156.887 231.692,160.456 234.830 M180.186 234.643 C 181.209 235.667,180.911 242.654,179.852 242.471 C 179.440 242.401,178.602 242.551,177.988 242.805 C 176.064 243.602,174.417 242.369,174.406 240.123 C 174.398 238.433,175.614 237.600,178.089 237.600 C 179.710 237.600,180.000 237.483,180.000 236.829 C 180.000 235.459,178.833 234.692,177.155 234.961 C 175.643 235.203,174.573 234.622,175.895 234.277 C 177.515 233.854,179.573 234.030,180.186 234.643 M190.624 234.567 C 191.521 235.223,192.094 242.800,191.246 242.800 C 190.675 242.800,190.425 241.585,190.302 238.208 C 190.119 233.204,185.896 233.383,185.698 238.404 C 185.468 244.240,184.400 244.239,184.400 238.403 L 184.400 234.454 185.606 234.488 C 186.269 234.507,186.929 234.405,187.072 234.261 C 187.543 233.790,189.830 233.988,190.624 234.567 M200.544 234.254 L 202.400 234.509 202.400 239.800 C 202.400 244.983,202.379 245.112,201.345 246.145 C 200.143 247.348,197.872 247.580,196.577 246.633 C 195.503 245.847,196.173 245.344,197.411 246.006 C 198.722 246.707,200.368 246.158,201.154 244.757 C 202.011 243.232,201.523 242.297,200.145 242.821 C 195.805 244.471,192.714 238.161,196.265 234.900 C 197.323 233.928,197.722 233.868,200.544 234.254 M212.369 235.036 C 213.217 235.749,213.600 236.428,213.600 237.219 L 213.600 238.368 210.300 238.484 C 207.330 238.588,206.988 238.682,206.883 239.415 C 206.627 241.202,208.948 242.418,211.500 241.834 C 213.390 241.401,213.151 242.263,211.221 242.841 C 207.444 243.972,204.325 240.037,206.030 236.293 C 207.089 233.970,210.337 233.325,212.369 235.036 M237.211 234.682 C 238.786 235.767,239.174 236.484,239.187 238.338 C 239.227 243.776,232.301 244.834,230.806 239.619 C 229.736 235.889,234.092 232.532,237.211 234.682 M258.000 234.348 C 258.000 234.539,257.354 234.800,256.564 234.928 C 254.311 235.294,254.000 235.765,254.000 238.816 C 254.000 241.732,253.732 242.929,253.158 242.574 C 252.961 242.452,252.800 240.575,252.800 238.403 L 252.800 234.454 254.006 234.488 C 254.669 234.507,255.329 234.405,255.472 234.261 C 255.861 233.872,258.000 233.945,258.000 234.348 M288.431 235.169 C 290.761 237.500,290.151 238.400,286.243 238.400 C 283.577 238.400,282.836 238.528,282.647 239.021 C 282.064 240.541,284.883 242.645,286.600 241.970 C 288.045 241.403,288.969 241.515,288.409 242.189 C 287.119 243.744,283.643 243.139,282.224 241.113 C 279.297 236.933,284.863 231.602,288.431 235.169 M222.900 237.804 C 224.462 242.217,224.357 242.237,226.533 237.100 C 227.162 235.615,227.920 234.400,228.218 234.400 C 228.784 234.400,228.633 234.892,226.806 239.000 C 226.414 239.880,225.514 241.950,224.805 243.600 C 222.824 248.212,221.555 249.087,223.081 244.789 L 223.763 242.870 222.281 239.127 C 220.700 235.131,220.509 234.236,221.294 234.498 C 221.566 234.589,222.288 236.076,222.900 237.804 M243.200 237.418 C 243.200 241.212,244.240 242.693,246.380 241.947 C 248.051 241.365,248.400 240.549,248.400 237.226 C 248.400 235.609,248.571 234.400,248.800 234.400 C 249.039 234.400,249.200 235.970,249.200 238.309 L 249.200 242.218 246.941 242.743 C 243.347 243.579,242.635 242.830,242.485 238.058 C 242.412 235.724,242.520 234.400,242.785 234.400 C 243.035 234.400,243.200 235.600,243.200 237.418 M271.200 238.376 C 271.200 240.596,271.023 242.462,270.800 242.600 C 270.543 242.759,270.400 241.337,270.400 238.624 C 270.400 236.075,270.559 234.400,270.800 234.400 C 271.040 234.400,271.200 235.992,271.200 238.376 M197.535 235.055 C 195.622 235.602,195.189 240.187,196.935 241.410 C 199.447 243.169,201.600 241.889,201.600 238.635 C 201.600 235.525,200.200 234.292,197.535 235.055 M207.854 235.629 C 205.982 237.101,206.644 238.000,209.600 238.000 C 212.451 238.000,213.155 237.155,211.600 235.600 C 210.572 234.572,209.184 234.583,207.854 235.629 M232.769 235.969 C 230.104 238.634,232.608 243.122,236.084 241.911 C 239.503 240.719,238.600 234.800,235.000 234.800 C 234.360 234.800,233.474 235.264,232.769 235.969 M284.135 235.199 C 281.748 236.162,282.707 237.988,285.600 237.988 C 287.873 237.988,288.571 237.570,288.209 236.427 C 287.779 235.075,285.871 234.499,284.135 235.199 M200.026 235.614 C 201.065 236.170,201.183 240.968,200.167 241.357 C 197.178 242.504,194.989 238.553,197.270 236.126 C 198.227 235.107,198.859 234.989,200.026 235.614 M211.300 236.100 L 212.200 237.000 210.056 237.122 C 207.492 237.269,207.080 236.991,208.344 235.966 C 209.571 234.971,210.200 235.000,211.300 236.100 M236.546 236.029 C 238.516 237.578,237.568 241.600,235.233 241.600 C 232.230 241.600,231.084 237.894,233.499 235.994 C 234.771 234.993,235.236 234.999,236.546 236.029 M286.826 235.614 C 288.403 236.458,287.741 237.200,285.413 237.200 C 283.581 237.200,283.265 237.097,283.468 236.567 C 283.893 235.460,285.622 234.970,286.826 235.614 M175.816 239.183 C 174.924 240.168,175.425 241.756,176.735 242.099 C 178.101 242.456,180.073 240.967,179.926 239.690 C 179.756 238.216,176.998 237.876,175.816 239.183 M179.076 239.454 C 179.463 240.463,178.637 241.400,177.362 241.400 C 176.077 241.400,175.595 240.370,176.416 239.381 C 177.067 238.597,178.765 238.644,179.076 239.454 " stroke="none" fill="#a5ebd7" fill-rule="evenodd"></path></g></svg>