<svg xmlns="http://www.w3.org/2000/svg" xmlns:xlink="http://www.w3.org/1999/xlink" width="272.629" height="89.47" viewBox="0 0 204.472 67.102"><clipPath id="a"><path transform="matrix(.24 0 0 .24 -18.978 -113.786)" d="M0 0h1170.833v1170.833H0z" fill-rule="evenodd"/></clipPath><g clip-path="url(#a)"><path d="M-18.978-113.786h281v281h-281z" fill="#fff"/></g><clipPath id="b"><path transform="matrix(.24 0 0 .24 -18.978 -113.786)" d="M85.379 480.599h243.533v268.12H85.379z" fill-rule="evenodd"/></clipPath><g clip-path="url(#b)"><path d="M3.668 22.755a8.372 8.372 0 0 1-1.624-2.692 8.372 8.372 0 0 1-.527-3.1c0-4.63 3.305-8.878 7.564-9.515a6.728 6.728 0 0 1 3.292.287c1.074.369 1.998.969 2.773 1.799 6.1 5.349 16.73 4.284 24.03-3.204a13.554 13.554 0 0 1 3.765-3.068 13.554 13.554 0 0 1 4.6-1.559c6.682-.988 12.412 3.207 12.412 9.44 0 3.122-1.46 6.053-3.787 8.235-8.634 8.105-8.634 20.614 0 28.716 2.327 2.18 3.787 5.124 3.787 8.227 0 6.239-5.73 10.439-12.412 9.44a13.566 13.566 0 0 1-4.589-1.553 13.566 13.566 0 0 1-3.759-3.055c-7.3-7.5-17.95-8.566-24.05-3.198a6.732 6.732 0 0 1-2.767 1.784 6.732 6.732 0 0 1-3.28.282c-4.26-.634-7.565-4.882-7.565-9.512-.02-1.066.156-2.1.526-3.1.371-1 .912-1.897 1.622-2.692 5.405-5.851 5.405-16.116-.011-21.962zM39.176 47.38c.121-.124.25-.242.38-.357a17.721 17.721 0 0 0 5.594-9.561 17.721 17.721 0 0 0-1.17-11.016 17.721 17.721 0 0 0-4.424-6 6.802 6.802 0 0 1-.363-.335c-7.3-6.044-17.95-4.989-24.05 1.592-.09.115-.183.228-.281.337-5.773 6.565-5.773 16.83 0 23.397.101.114.195.232.28.353 6.105 6.562 16.735 7.615 24.034 1.59z" fill="#27dfad"/></g><clipPath id="c"><path transform="matrix(.24 0 0 .24 -18.978 -113.786)" d="M0 0h1170.833v1170.833H0z" fill-rule="evenodd"/></clipPath><g clip-path="url(#c)"><symbol id="d"><path d="M0 .241a.24.24 0 0 0 .067.172c.045.047.1.07.167.07A.215.215 0 0 0 .402.407C.412.395.411.384.398.374L.382.359C.372.35.361.353.349.366a.147.147 0 0 1-.116.05.145.145 0 0 1-.112-.051.177.177 0 0 1-.046-.123A.18.18 0 0 1 .12.118.141.141 0 0 1 .23.067c.021 0 .04.004.058.012a.15.15 0 0 1 .038.022.384.384 0 0 1 .03.032C.367.146.38.146.395.131L.401.125C.411.115.414.104.407.093A.218.218 0 0 0 .233 0a.224.224 0 0 0-.168.068A.24.24 0 0 0 0 .241z"/></symbol><symbol id="e"><path d="M0 .022v.656c0 .005.002.01.006.015C.011.698.016.7.022.7h.03C.057.7.062.698.067.693A.021.021 0 0 0 .074.678V.413l.017.016a.226.226 0 0 0 .05.026.198.198 0 0 0 .08.017C.332.472.388.403.388.266V.022A.022.022 0 0 0 .366 0H.335a.024.024 0 0 0-.016.006.024.024 0 0 0-.006.016v.244c0 .093-.032.139-.097.139A.174.174 0 0 1 .141.388.178.178 0 0 1 .09.356L.074.339V.022A.022.022 0 0 0 .052 0h-.03a.024.024 0 0 0-.016.006A.024.024 0 0 0 0 .022z"/></symbol><symbol id="f"><path d="M.04.041a.153.153 0 0 0-.04.11c0 .045.016.082.049.11a.2.2 0 0 0 .136.043A.28.28 0 0 0 .231.3.264.264 0 0 0 .27.293L.284.289A.223.223 0 0 1 .27.387C.26.407.24.416.208.416A.448.448 0 0 1 .071.389C.061.385.054.389.049.401l-.01.027C.036.438.04.447.053.453c.046.02.099.03.159.03.057 0 .095-.015.114-.044C.346.41.355.36.355.289V.033A.022.022 0 0 0 .348.017.02.02 0 0 0 .333.011H.314c-.01 0-.016.006-.019.017L.286.059A.195.195 0 0 0 .143 0 .14.14 0 0 0 .04.041m.033.11c0-.024.008-.044.023-.06a.08.08 0 0 1 .06-.024c.027 0 .052.006.075.018a.134.134 0 0 1 .052.044v.094a.214.214 0 0 1-.098.018.129.129 0 0 1-.081-.024.077.077 0 0 1-.031-.066z"/></symbol><symbol id="g"><path d="M0 .022V.44c0 .005.002.01.006.015.005.005.01.007.016.007h.016c.01 0 .016-.005.018-.014l.01-.035a.18.18 0 0 0 .019.016.255.255 0 0 0 .053.026.21.21 0 0 0 .083.017c.063 0 .106-.018.13-.054A.264.264 0 0 0 .388.266V.022A.022.022 0 0 0 .366 0h-.03A.024.024 0 0 0 .32.006a.024.024 0 0 0-.006.016v.254C.314.32.306.352.29.373.275.394.25.405.216.405A.183.183 0 0 1 .141.389.178.178 0 0 1 .09.357L.074.341V.022A.022.022 0 0 0 .052 0h-.03a.024.024 0 0 0-.016.006A.024.024 0 0 0 0 .022z"/></symbol><symbol id="h"><path d="M.075.451c0-.05.015-.092.044-.125a.14.14 0 0 1 .11-.05.192.192 0 0 1 .102.029l.015.009v.253a.164.164 0 0 1-.057.04.144.144 0 0 1-.065.016.132.132 0 0 1-.108-.051.187.187 0 0 1-.041-.121M.42.659V.216C.42.142.4.088.362.053A.203.203 0 0 0 .218 0a.229.229 0 0 0-.094.02.243.243 0 0 0-.067.04C.047.069.045.078.052.087l.02.029c.007.012.017.012.03.001A.18.18 0 0 1 .218.068c.04 0 .07.012.094.036.023.023.035.06.035.112v.033A.2.2 0 0 0 .219.208a.203.203 0 0 0-.157.07A.25.25 0 0 0 0 .45c0 .067.02.124.061.171.041.047.093.07.155.07A.212.212 0 0 0 .287.679.193.193 0 0 0 .338.655L.354.644l.007.021c.006.01.013.016.022.016h.014A.022.022 0 0 0 .413.674.021.021 0 0 0 .42.659z"/></symbol><symbol id="i"><path d="M0 .242c0 .067.02.124.061.171.04.047.095.07.163.07A.203.203 0 0 0 .431.245C.43.232.423.225.41.225H.074A.168.168 0 0 1 .12.116.137.137 0 0 1 .225.067C.27.067.311.08.35.105c.009.006.015.009.019.009S.379.111.385.102L.397.085A.069.069 0 0 0 .404.073L.403.064a.03.03 0 0 0-.01-.011A.264.264 0 0 0 .224 0a.207.207 0 0 0-.163.069A.254.254 0 0 0 0 .242m.075.042h.284a.135.135 0 0 1-.04.092.126.126 0 0 1-.095.04.142.142 0 0 1-.1-.039.147.147 0 0 1-.049-.093z"/></symbol><symbol id="j"><path d="M0 0z"/></symbol><symbol id="k"><path d="m.176.239-.17.436C0 .692.007.7.026.7h.042C.077.7.083.696.087.687L.217.32H.22l.156.367C.379.696.386.7.396.7h.037C.44.7.447.697.45.692.454.687.454.682.45.674L.16.014C.159.004.152 0 .142 0H.107C.097 0 .09.003.086.008.084.013.084.02.087.028l.09.211z"/></symbol><symbol id="l"><path d="M0 .243c0 .065.023.122.068.169.045.047.1.071.164.071A.219.219 0 0 0 .396.412.236.236 0 0 0 .464.243.24.24 0 0 0 .396.072.217.217 0 0 0 .232 0a.217.217 0 0 0-.164.072A.24.24 0 0 0 0 .243m.073 0c0-.049.015-.09.045-.125A.147.147 0 0 1 .232.067c.045 0 .082.017.112.051.03.035.046.076.046.125a.176.176 0 0 1-.046.122.143.143 0 0 1-.112.051.146.146 0 0 1-.113-.051.176.176 0 0 1-.046-.122z"/></symbol><symbol id="m"><path d="M0 .202v.249a.02.02 0 0 0 .006.015c.005.005.01.007.016.007h.03A.019.019 0 0 0 .067.466.021.021 0 0 0 .074.451v-.25A.18.18 0 0 1 .097.099C.113.078.137.067.171.067c.048 0 .092.022.131.067v.317a.02.02 0 0 0 .006.015.019.019 0 0 0 .015.007h.031c.005 0 .01-.002.014-.007A.021.021 0 0 0 .375.451V.033A.022.022 0 0 0 .368.017.02.02 0 0 0 .354.011H.338c-.01 0-.018.007-.021.02L.308.06A.189.189 0 0 0 .165 0C.102 0 .059.017.035.051A.267.267 0 0 0 0 .202z"/></symbol><symbol id="n"><path d="M0 .022V.44c0 .005.002.01.006.015.005.005.01.007.016.007h.016c.01 0 .017-.005.02-.016L.066.413c.003.005.008.01.015.016a.2.2 0 0 0 .047.026.19.19 0 0 0 .109.015C.247.47.256.468.265.465.275.463.282.459.286.454.291.449.292.442.289.435L.276.399C.271.386.262.382.249.388a.126.126 0 0 1-.05.013.178.178 0 0 1-.047-.006A.13.13 0 0 1 .116.38.22.22 0 0 1 .092.363.088.088 0 0 1 .078.348L.074.342v-.32A.022.022 0 0 0 .052 0h-.03a.024.024 0 0 0-.016.006A.024.024 0 0 0 0 .022z"/></symbol><symbol id="o"><path d="M0 .022v.656c0 .005.002.01.006.015C.011.698.016.7.022.7h.03C.057.7.062.698.067.693A.021.021 0 0 0 .074.678V.022A.022.022 0 0 0 .052 0h-.03a.024.024 0 0 0-.016.006A.024.024 0 0 0 0 .022z"/></symbol><symbol id="p"><path d="M.054.581a.052.052 0 0 0-.038.016A.052.052 0 0 0 0 .635c0 .016.005.03.015.04.01.01.024.016.039.016A.054.054 0 0 0 .109.635.052.052 0 0 0 .093.597.053.053 0 0 0 .054.581M.019.022V.44c0 .005.002.01.006.015.005.005.01.007.016.007h.03C.076.462.081.46.086.455A.021.021 0 0 0 .093.44V.022A.022.022 0 0 0 .071 0h-.03a.024.024 0 0 0-.016.006.024.024 0 0 0-.006.016z"/></symbol><symbol id="q"><path d="M.096.022v.376H.022a.024.024 0 0 0-.016.006A.024.024 0 0 0 0 .42v.02c0 .007.002.012.006.016.005.004.01.006.016.006h.074v.073c0 .057.013.1.039.13C.162.695.2.71.25.71A.176.176 0 0 0 .377.662C.386.653.387.645.381.636L.362.612C.355.602.346.602.333.611a.146.146 0 0 1-.085.032C.196.643.17.607.17.535V.462h.137A.02.02 0 0 0 .322.456.02.02 0 0 0 .329.44V.42A.022.022 0 0 0 .322.404.02.02 0 0 0 .307.398H.17V.022A.022.022 0 0 0 .163.006.02.02 0 0 0 .148 0h-.03a.024.024 0 0 0-.016.006.024.024 0 0 0-.006.016z"/></symbol><use xlink:href="#d" transform="matrix(14.05 0 0 -14.05 88.7 57.069)" fill="#27dfad"/><use xlink:href="#e" transform="matrix(14.05 0 0 -14.05 96.146 56.914)" fill="#27dfad"/><use xlink:href="#f" transform="matrix(14.05 0 0 -14.05 103.213 57.069)" fill="#27dfad"/><use xlink:href="#g" transform="matrix(14.05 0 0 -14.05 110.336 56.914)" fill="#27dfad"/><use xlink:href="#h" transform="matrix(14.05 0 0 -14.05 117.502 59.991)" fill="#27dfad"/><use xlink:href="#i" transform="matrix(14.05 0 0 -14.05 125.187 57.069)" fill="#27dfad"/><use xlink:href="#j" transform="matrix(14.05 0 0 -14.05 131.875 56.914)" fill="#27dfad"/><use xlink:href="#k" transform="matrix(14.05 0 0 -14.05 135.56 60.258)" fill="#27dfad"/><use xlink:href="#l" transform="matrix(14.05 0 0 -14.05 142.792 57.069)" fill="#27dfad"/><use xlink:href="#m" transform="matrix(14.05 0 0 -14.05 151.011 57.069)" fill="#27dfad"/><use xlink:href="#n" transform="matrix(14.05 0 0 -14.05 158.472 56.914)" fill="#27dfad"/><use xlink:href="#j" transform="matrix(14.05 0 0 -14.05 162.799 56.914)" fill="#27dfad"/><use xlink:href="#o" transform="matrix(14.05 0 0 -14.05 167.337 56.914)" fill="#27dfad"/><use xlink:href="#p" transform="matrix(14.05 0 0 -14.05 170.372 56.914)" fill="#27dfad"/><use xlink:href="#q" transform="matrix(14.05 0 0 -14.05 173.112 56.914)" fill="#27dfad"/><use xlink:href="#i" transform="matrix(14.05 0 0 -14.05 178.52 57.069)" fill="#27dfad"/><symbol id="r"><path d="M.162.019v.534H.019a.021.021 0 0 0-.014.005A.021.021 0 0 0 0 .572v.109c0 .005.002.01.005.013A.02.02 0 0 0 .019.7h.444C.468.7.473.698.476.694A.016.016 0 0 0 .482.681V.572A.02.02 0 0 0 .476.558.018.018 0 0 0 .463.553H.32V.019A.018.018 0 0 0 .314.006.018.018 0 0 0 .301 0h-.12a.018.018 0 0 0-.013.006.018.018 0 0 0-.006.013z"/></symbol><symbol id="s"><path d="M0 .019v.662c0 .005.002.01.005.013A.02.02 0 0 0 .019.7h.299A.21.21 0 0 0 .474.637.21.21 0 0 0 .536.484.2.2 0 0 0 .497.362.231.231 0 0 0 .388.283L.525.029a.018.018 0 0 0 0-.02C.522.003.516 0 .508 0H.375C.367 0 .362.003.359.009L.226.274H.157V.019A.018.018 0 0 0 .151.006.018.018 0 0 0 .138 0H.019a.021.021 0 0 0-.014.005A.021.021 0 0 0 0 .019m.157.382h.148c.02 0 .038.007.053.022a.079.079 0 0 1 .023.058.073.073 0 0 1-.022.055.075.075 0 0 1-.054.021H.157V.401z"/></symbol><symbol id="t"><path d="M.02 0a.02.02 0 0 0-.017.008C0 .013 0 .019.003.026l.313.673A.017.017 0 0 0 .333.71h.01A.017.017 0 0 0 .36.699L.673.026C.677.019.676.013.673.008.668.003.662 0 .655 0h-.11C.53 0 .517.008.51.025L.474.104H.202L.166.024A.036.036 0 0 0 .13 0H.02m.242.24h.152L.338.405.261.24z"/></symbol><symbol id="u"><path d="M0 .019v.662c0 .005.002.01.005.013A.018.018 0 0 0 .018.7h.244C.359.7.442.666.51.597A.334.334 0 0 0 .613.351.338.338 0 0 0 .51.103.338.338 0 0 0 .262 0H.018a.02.02 0 0 0-.013.005A.021.021 0 0 0 0 .019m.156.129h.105c.055 0 .1.02.134.058a.21.21 0 0 1 .052.145.208.208 0 0 1-.052.144.17.17 0 0 1-.134.058H.156V.148z"/></symbol><symbol id="v"><path d="M0 .019v.662c0 .005.002.01.005.013A.02.02 0 0 0 .019.7h.414C.438.7.443.698.446.694A.016.016 0 0 0 .452.681V.572A.02.02 0 0 0 .446.558.018.018 0 0 0 .433.553H.156V.429h.228A.018.018 0 0 0 .397.423.016.016 0 0 0 .403.41V.301A.02.02 0 0 0 .397.287.018.018 0 0 0 .384.282H.156V.147h.277c.005 0 .01-.002.013-.006A.016.016 0 0 0 .452.128V.019A.02.02 0 0 0 .446.005.018.018 0 0 0 .433 0H.019a.021.021 0 0 0-.014.005A.021.021 0 0 0 0 .019z"/></symbol><symbol id="w"><path d="M.011.022V.44c0 .007.002.012.006.016.005.004.01.006.016.006h.108A.02.02 0 0 0 .156.456.02.02 0 0 0 .163.44V.022A.022.022 0 0 0 .156.006.02.02 0 0 0 .141 0H.033a.024.024 0 0 0-.016.006.024.024 0 0 0-.006.016m.136.529A.083.083 0 0 0 .086.526.085.085 0 0 0 0 .612c0 .024.008.045.025.062A.081.081 0 0 0 .086.7.081.081 0 0 0 .147.674.085.085 0 0 0 .173.612.084.084 0 0 0 .147.551z"/></symbol><symbol id="x"><path d="M.001.029 0 .702c0 .005.002.009.005.012A.02.02 0 0 0 .019.72h.015C.041.72.049.715.059.705L.443.336h.001v.355c0 .005.002.01.005.013A.02.02 0 0 0 .463.71h.12A.018.018 0 0 0 .596.704.018.018 0 0 0 .602.691V.018C.602.006.596 0 .583 0h-.01a.034.034 0 0 0-.025.011L.159.402H.158V.029A.02.02 0 0 0 .152.015.018.018 0 0 0 .139.01H.02a.02.02 0 0 0-.014.006.02.02 0 0 0-.005.013z"/></symbol><use xlink:href="#r" transform="matrix(33.439 0 0 -33.439 67.565 47.36)" fill="#676767"/><use xlink:href="#s" transform="matrix(33.439 0 0 -33.439 87.193 47.36)" fill="#676767"/><use xlink:href="#t" transform="matrix(33.439 0 0 -33.439 106.577 47.36)" fill="#676767"/><use xlink:href="#u" transform="matrix(33.439 0 0 -33.439 131.734 47.36)" fill="#676767"/><use xlink:href="#v" transform="matrix(33.439 0 0 -33.439 156.211 47.36)" fill="#676767"/><use xlink:href="#w" transform="matrix(33.439 0 0 -33.439 174.202 47.36)" fill="#676767"/><use xlink:href="#x" transform="matrix(33.439 0 0 -33.439 183.765 47.695)" fill="#676767"/></g><clipPath id="y"><path transform="matrix(.24 0 0 .24 -18.978 -113.786)" d="M0 0h1170.833v1170.833H0z"/></clipPath><g clip-path="url(#y)"><clipPath id="z"><path transform="matrix(.24 0 0 .24 -18.978 -113.786)" d="M0 0h1170.833v1170.833H0z"/></clipPath><g clip-path="url(#z)"><clipPath id="A"><path transform="matrix(.24 0 0 .24 -18.978 -113.786)" d="m346.342 637.16 67.907-.38.38 67.908-67.907.38-.38-67.908z"/></clipPath><g clip-path="url(#A)"><path d="m72.384 55.384-8.149.046 8.103-8.195-8.194-8.103 8.149-.046 8.194 8.104-8.103 8.194z" fill="#27dfad"/></g></g></g></svg>