<svg xmlns="http://www.w3.org/2000/svg" xmlns:xlink="http://www.w3.org/1999/xlink" width="500" zoomAndPan="magnify" viewBox="0 0 375 374.999991" height="500" preserveAspectRatio="xMidYMid meet" version="1.0"><defs><g/><clipPath id="0afd4e8fab"><path d="M 68.339844 68.339844 L 306.839844 68.339844 L 306.839844 306.839844 L 68.339844 306.839844 Z M 68.339844 68.339844 " clip-rule="nonzero"/></clipPath><clipPath id="92500870ff"><path d="M 187.589844 68.339844 C 121.730469 68.339844 68.339844 121.730469 68.339844 187.589844 C 68.339844 253.453125 121.730469 306.839844 187.589844 306.839844 C 253.453125 306.839844 306.839844 253.453125 306.839844 187.589844 C 306.839844 121.730469 253.453125 68.339844 187.589844 68.339844 " clip-rule="nonzero"/></clipPath><clipPath id="42806f25ed"><path d="M 84.328125 84.328125 L 290.578125 84.328125 L 290.578125 290.578125 L 84.328125 290.578125 Z M 84.328125 84.328125 " clip-rule="nonzero"/></clipPath><clipPath id="47b69d4ec8"><path d="M 187.453125 84.328125 C 130.5 84.328125 84.328125 130.5 84.328125 187.453125 C 84.328125 244.40625 130.5 290.578125 187.453125 290.578125 C 244.40625 290.578125 290.578125 244.40625 290.578125 187.453125 C 290.578125 130.5 244.40625 84.328125 187.453125 84.328125 " clip-rule="nonzero"/></clipPath><clipPath id="5e2d5da71d"><path d="M 0 120 L 375 120 L 375 258 L 0 258 Z M 0 120 " clip-rule="nonzero"/></clipPath><clipPath id="3d21e72a38"><path d="M -3.855469 163.355469 L 368.683594 120.460938 L 379.53125 214.667969 L 6.992188 257.5625 Z M -3.855469 163.355469 " clip-rule="nonzero"/></clipPath><clipPath id="34353f1b6e"><path d="M -3.855469 163.355469 L 368.683594 120.460938 L 379.53125 214.667969 L 6.992188 257.5625 Z M -3.855469 163.355469 " clip-rule="nonzero"/></clipPath></defs><rect x="-37.5" width="450" fill="#ffffff" y="-37.499999" height="449.999989" fill-opacity="1"/><rect x="-37.5" width="450" fill="#ffffff" y="-37.499999" height="449.999989" fill-opacity="1"/><rect x="-37.5" width="450" fill="#ffffff" y="-37.499999" height="449.999989" fill-opacity="1"/><g clip-path="url(#0afd4e8fab)"><g clip-path="url(#92500870ff)"><path stroke-linecap="butt" transform="matrix(0.75059, 0, 0, 0.75059, 68.341742, 68.341738)" fill="none" stroke-linejoin="miter" d="M 158.872475 -0.00252356 C 71.129008 -0.00252356 -0.00252956 71.129014 -0.00252956 158.872481 C -0.00252956 246.621154 71.129008 317.747487 158.872475 317.747487 C 246.621148 317.747487 317.747481 246.621154 317.747481 158.872481 C 317.747481 71.129014 246.621148 -0.00252356 158.872475 -0.00252356 " stroke="#7ed957" stroke-width="12" stroke-opacity="1" stroke-miterlimit="4"/></g></g><g clip-path="url(#42806f25ed)"><g clip-path="url(#47b69d4ec8)"><path stroke-linecap="butt" transform="matrix(0.749659, 0, 0, 0.749659, 84.3277, 84.327695)" fill="none" stroke-linejoin="miter" d="M 137.563076 0.000573244 C 61.591054 0.000573244 0.000567241 61.59106 0.000567241 137.563082 C 0.000567241 213.535104 61.591054 275.125591 137.563076 275.125591 C 213.535098 275.125591 275.125584 213.535104 275.125584 137.563082 C 275.125584 61.59106 213.535098 0.000573244 137.563076 0.000573244 " stroke="#7ed957" stroke-width="26" stroke-opacity="1" stroke-miterlimit="4"/></g></g><g clip-path="url(#5e2d5da71d)"><g clip-path="url(#3d21e72a38)"><g clip-path="url(#34353f1b6e)"><path fill="#ffffff" d="M -3.855469 163.355469 L 368.683594 120.460938 L 379.53125 214.667969 L 6.992188 257.5625 Z M -3.855469 163.355469 " fill-opacity="1" fill-rule="nonzero"/></g></g></g><g fill="#2b4257" fill-opacity="1"><g transform="translate(103.425216, 213.856829)"><g><path d="M 31.871094 -29.855469 L 35.683594 -30.289062 C 40.746094 -30.859375 43.875 -31.765625 46.078125 -33.199219 C 50.339844 -35.964844 52.769531 -40.972656 52.199219 -46.03125 C 51.34375 -53.582031 44.839844 -58.128906 36.195312 -57.152344 C 24.753906 -55.859375 16.472656 -47.511719 16.59375 -37.355469 L 10.132812 -36.625 L 9.121094 -36.511719 C 5.773438 -36.132812 3.398438 -33.421875 3.734375 -30.460938 C 3.996094 -28.125 5.625 -26.96875 8.359375 -27.199219 L 9.371094 -27.316406 L 19.648438 -28.476562 C 21.078125 -26.273438 22.335938 -24.917969 25.578125 -22.050781 C 26.097656 -21.636719 26.453125 -21.28125 26.886719 -20.9375 C 28.195312 -19.824219 28.558594 -19.390625 28.820312 -19.183594 C 29.960938 -18.128906 30.855469 -17.207031 31.660156 -16.351562 C 34.011719 -13.699219 35.15625 -11.226562 35.457031 -8.578125 C 36.277344 -1.339844 31.105469 5.238281 24.019531 6.039062 C 17.871094 6.734375 12.777344 2.8125 12.105469 -3.101562 C 11.675781 -6.917969 13.753906 -11.566406 17.085938 -14.152344 L 19.835938 -16.355469 C 21.863281 -17.925781 22.582031 -19.265625 22.378906 -21.058594 C 22.097656 -23.550781 19.957031 -25.042969 17.230469 -24.734375 C 14.664062 -24.445312 11.84375 -22.863281 9.003906 -20.097656 C 3.839844 -14.863281 1.402344 -8.515625 2.160156 -1.820312 C 3.453125 9.625 12.699219 16.777344 24.453125 15.449219 C 37.765625 13.945312 47.109375 3.113281 45.726562 -9.109375 C 45.171875 -14.015625 42.351562 -19.449219 38.164062 -23.707031 L 35.867188 -25.894531 Z M 26.324219 -38.457031 C 26.144531 -42.851562 30.910156 -47.410156 36.285156 -48.015625 C 39.863281 -48.421875 42.367188 -47.207031 42.632812 -44.871094 C 42.957031 -41.992188 40.261719 -40.03125 35.433594 -39.484375 Z M 26.324219 -38.457031 "/></g></g></g><g fill="#2b4257" fill-opacity="1"><g transform="translate(155.658619, 207.954134)"><g><path d="M 28.917969 -17.617188 L 28.855469 -27.230469 C 28.890625 -27.628906 28.84375 -28.015625 28.800781 -28.40625 C 28.46875 -31.363281 26.472656 -32.953125 23.4375 -32.609375 C 21.179688 -32.355469 19.003906 -30.691406 17.570312 -28.003906 L 10.527344 -14.988281 L 10.34375 -25.691406 C 10.359375 -26.242188 10.367188 -26.875 10.339844 -27.109375 C 10.050781 -29.679688 8.566406 -30.929688 6.308594 -30.675781 C 3.429688 -30.347656 1.496094 -27.921875 1.546875 -24.695312 L 1.582031 -23.675781 L 2.375 -7.601562 C 2.496094 -3.042969 5.363281 0.0234375 9.023438 -0.390625 C 11.046875 -0.617188 12.558594 -1.890625 13.992188 -4.578125 L 20.507812 -16.667969 L 20.046875 -9.597656 C 20.011719 -9.199219 19.988281 -8.722656 20.039062 -8.257812 C 20.460938 -4.519531 23.425781 -2.015625 26.929688 -2.414062 C 28.5625 -2.597656 30.578125 -4.324219 32.050781 -6.617188 L 44.265625 -26.210938 L 44.941406 -27.234375 C 45.8125 -28.59375 46.273438 -30.066406 46.152344 -31.15625 C 45.898438 -33.414062 44 -34.855469 41.664062 -34.589844 C 39.5625 -34.351562 38.414062 -33.355469 36.480469 -30.21875 Z M 28.917969 -17.617188 "/></g></g></g><g fill="#2b4257" fill-opacity="1"><g transform="translate(202.832149, 202.623235)"><g><path d="M 25.996094 -11.375 L 30 -25.46875 C 30.621094 -27.664062 30.714844 -28.226562 30.589844 -29.320312 C 30.371094 -31.265625 28.402344 -32.621094 26.222656 -32.375 C 24.042969 -32.125 22.730469 -31.191406 21.636719 -29.015625 C 19.824219 -31.097656 17.367188 -31.925781 14.171875 -31.5625 C 5.6875 -30.605469 -1.308594 -20.667969 -0.21875 -11.011719 C 0.511719 -4.550781 4.75 -0.535156 10.121094 -1.144531 L 14.714844 -1.664062 C 16.660156 -1.882812 17.851562 -2.492188 19.320312 -4.15625 L 19.949219 -4.855469 C 20.933594 -3.152344 22.34375 -2.523438 24.601562 -2.78125 L 29.503906 -3.335938 L 30.441406 -3.441406 C 33.476562 -3.78125 35.722656 -6.246094 35.414062 -8.96875 C 35.167969 -11.148438 33.632812 -12.160156 31.132812 -11.953125 L 30.199219 -11.847656 Z M 16.910156 -12.238281 C 16.625 -11.261719 14.890625 -9.882812 13.722656 -9.75 L 12.242188 -9.582031 C 10.296875 -9.363281 8.890625 -10.625 8.617188 -13.039062 C 8.089844 -17.707031 11.765625 -23.5625 15.582031 -23.996094 C 17.449219 -24.207031 19.148438 -23.136719 19.3125 -21.65625 C 19.367188 -21.191406 19.339844 -20.714844 19.160156 -20.222656 L 18.996094 -19.570312 Z M 16.910156 -12.238281 "/></g></g></g><g fill="#2b4257" fill-opacity="1"><g transform="translate(239.185355, 198.5151)"><g><path d="M 10.175781 -4.144531 C 12.566406 -1.816406 13.710938 -1.46875 18.769531 -2.042969 C 23.363281 -2.5625 25.394531 -3.421875 27.425781 -5.699219 C 30.980469 -9.808594 32.863281 -16.171875 32.167969 -22.320312 C 31.414062 -29.015625 27.410156 -33.058594 22.113281 -32.460938 C 19.46875 -32.160156 17.394531 -30.980469 15.8125 -28.910156 C 14.609375 -30.507812 13.535156 -30.9375 11.820312 -30.746094 C 9.5625 -30.492188 7.984375 -29.128906 7.304688 -26.765625 L -5.898438 20.378906 L -6.25 21.441406 C -6.464844 22.335938 -6.59375 23.296875 -6.503906 24.074219 C -6.277344 26.097656 -4.386719 27.460938 -2.285156 27.222656 C 0.441406 26.914062 1.917969 25.328125 3.042969 21.339844 Z M 12.417969 -12.207031 L 14.214844 -18.636719 L 14.621094 -19.945312 C 15.1875 -21.902344 15.125 -21.734375 15.609375 -22.34375 C 16.5 -23.546875 17.976562 -24.421875 19.378906 -24.582031 C 21.714844 -24.847656 23.109375 -23.664062 23.382812 -21.25 C 23.652344 -18.835938 22.742188 -15.027344 21.285156 -12.578125 C 20.285156 -10.964844 19.335938 -10.304688 17.390625 -10.085938 L 16.835938 -10.101562 C 14.8125 -9.875 13.894531 -10.320312 12.417969 -12.207031 Z M 12.417969 -12.207031 "/></g></g></g><g fill="#2b4257" fill-opacity="1"><g transform="translate(267.706624, 215.465029)"><g><path d="M 2.46875 -17.203125 L 3.546875 -7.703125 C 3.734375 -6.078125 4.109375 -4.894531 4.671875 -4.15625 C 5.234375 -3.414062 6.023438 -3.101562 7.046875 -3.21875 C 8.078125 -3.332031 8.78125 -3.804688 9.15625 -4.640625 C 9.539062 -5.472656 9.640625 -6.695312 9.453125 -8.3125 L 8.375 -17.859375 L 11.609375 -18.234375 L 12.75 -8.15625 C 13 -5.914062 12.664062 -4.113281 11.75 -2.75 C 10.84375 -1.394531 9.378906 -0.601562 7.359375 -0.375 C 5.328125 -0.144531 3.710938 -0.59375 2.515625 -1.71875 C 1.328125 -2.84375 0.609375 -4.519531 0.359375 -6.75 L -0.78125 -16.828125 Z M 2.46875 -17.203125 "/></g></g></g><g fill="#2b4257" fill-opacity="1"><g transform="translate(284.541826, 213.562548)"><g><path d="M 6.890625 -18.140625 L 15.171875 -1.71875 L 11.6875 -1.328125 L 10.03125 -4.703125 L 4.21875 -4.046875 L 3.234375 -0.359375 L -0.203125 0.015625 L 4.375 -17.859375 Z M 4.84375 -6.796875 L 8.796875 -7.25 L 6.03125 -13.09375 L 5.984375 -13.078125 Z M 4.84375 -6.796875 "/></g></g></g></svg>